<svg width="32" height="32" viewBox="0 0 32 32" fill="none" xmlns="http://www.w3.org/2000/svg">
<path d="M7.08572 26.0286H11.5429V18.6C11.5429 18.179 11.6855 17.8264 11.9707 17.5422C12.256 17.2579 12.6086 17.1153 13.0286 17.1143H18.9714C19.3924 17.1143 19.7455 17.2569 20.0307 17.5422C20.316 17.8274 20.4581 18.18 20.4571 18.6V26.0286H24.9143V12.6571L16 5.97143L7.08572 12.6571V26.0286ZM4.11429 26.0286V12.6571C4.11429 12.1867 4.21977 11.741 4.43075 11.32C4.64172 10.899 4.93242 10.5524 5.30286 10.28L14.2171 3.59429C14.7371 3.1981 15.3314 3 16 3C16.6686 3 17.2629 3.1981 17.7829 3.59429L26.6971 10.28C27.0686 10.5524 27.3598 10.899 27.5707 11.32C27.7817 11.741 27.8867 12.1867 27.8857 12.6571V26.0286C27.8857 26.8457 27.5945 27.5455 27.0121 28.1279C26.4297 28.7103 25.7304 29.001 24.9143 29H18.9714C18.5505 29 18.1979 28.8574 17.9136 28.5721C17.6293 28.2869 17.4867 27.9342 17.4857 27.5143V20.0857H14.5143V27.5143C14.5143 27.9352 14.3717 28.2883 14.0864 28.5736C13.8011 28.8589 13.4485 29.001 13.0286 29H7.08572C6.26857 29 5.5693 28.7093 4.98789 28.1279C4.40648 27.5465 4.11528 26.8467 4.11429 26.0286Z" fill="#F4F2EF"/>
</svg>
