<svg width="24" height="24" viewBox="0 0 24 24" fill="none" xmlns="http://www.w3.org/2000/svg">
<path d="M5.82857 18.9429H8.91428V13.8C8.91428 13.5086 9.01302 13.2645 9.21051 13.0677C9.40799 12.8709 9.65211 12.7721 9.94285 12.7714H14.0571C14.3486 12.7714 14.593 12.8702 14.7905 13.0677C14.988 13.2651 15.0864 13.5093 15.0857 13.8V18.9429H18.1714V9.68571L12 5.05714L5.82857 9.68571V18.9429ZM3.77142 18.9429V9.68571C3.77142 9.36 3.84445 9.05143 3.99051 8.76C4.13657 8.46857 4.33782 8.22857 4.59428 8.04L10.7657 3.41143C11.1257 3.13714 11.5371 3 12 3C12.4629 3 12.8743 3.13714 13.2343 3.41143L19.4057 8.04C19.6629 8.22857 19.8644 8.46857 20.0105 8.76C20.1566 9.05143 20.2292 9.36 20.2286 9.68571V18.9429C20.2286 19.5086 20.027 19.993 19.6238 20.3962C19.2206 20.7994 18.7364 21.0007 18.1714 21H14.0571C13.7657 21 13.5216 20.9013 13.3248 20.7038C13.128 20.5063 13.0293 20.2622 13.0286 19.9714V14.8286H10.9714V19.9714C10.9714 20.2629 10.8727 20.5073 10.6752 20.7048C10.4777 20.9023 10.2336 21.0007 9.94285 21H5.82857C5.26285 21 4.77874 20.7987 4.37622 20.3962C3.97371 19.9937 3.77211 19.5093 3.77142 18.9429Z" fill="#F4F2EF"/>
</svg>
