<svg width="16" height="16" viewBox="0 0 16 16" fill="none" xmlns="http://www.w3.org/2000/svg">
<path d="M4.57143 11.8571H6.28572V9C6.28572 8.83809 6.34057 8.70247 6.45029 8.59314C6.56 8.48381 6.69562 8.42895 6.85714 8.42857H9.14286C9.30476 8.42857 9.44057 8.48343 9.55029 8.59314C9.66 8.70286 9.71467 8.83847 9.71429 9V11.8571H11.4286V6.71428L8 4.14286L4.57143 6.71428V11.8571ZM3.42857 11.8571V6.71428C3.42857 6.53333 3.46914 6.3619 3.55029 6.2C3.63143 6.03809 3.74324 5.90476 3.88572 5.8L7.31429 3.22857C7.51429 3.07619 7.74286 3 8 3C8.25714 3 8.48572 3.07619 8.68572 3.22857L12.1143 5.8C12.2571 5.90476 12.3691 6.03809 12.4503 6.2C12.5314 6.3619 12.5718 6.53333 12.5714 6.71428V11.8571C12.5714 12.1714 12.4594 12.4406 12.2354 12.6646C12.0114 12.8886 11.7425 13.0004 11.4286 13H9.14286C8.98095 13 8.84533 12.9451 8.736 12.8354C8.62667 12.7257 8.57181 12.5901 8.57143 12.4286V9.57143H7.42857V12.4286C7.42857 12.5905 7.37372 12.7263 7.264 12.836C7.15429 12.9457 7.01867 13.0004 6.85714 13H4.57143C4.25714 13 3.98819 12.8882 3.76457 12.6646C3.54095 12.4409 3.42895 12.1718 3.42857 11.8571Z" fill="#F4F2EF"/>
</svg>
