<svg width="32" height="32" viewBox="0 0 32 32" fill="currentColor"ntColor" xmlns="http://www.w3.org/2000/svg">
<path d="M27.375 14.375H17.625V4.625C17.625 4.19402 17.4538 3.7807 17.149 3.47595C16.8443 3.17121 16.431 3 16 3C15.569 3 15.1557 3.17121 14.851 3.47595C14.5462 3.7807 14.375 4.19402 14.375 4.625V14.375H4.625C4.19402 14.375 3.7807 14.5462 3.47595 14.851C3.17121 15.1557 3 15.569 3 16C3 16.431 3.17121 16.8443 3.47595 17.149C3.7807 17.4538 4.19402 17.625 4.625 17.625H14.375V27.375C14.375 27.806 14.5462 28.2193 14.851 28.524C15.1557 28.8288 15.569 29 16 29C16.431 29 16.8443 28.8288 17.149 28.524C17.4538 28.2193 17.625 27.806 17.625 27.375V17.625H27.375C27.806 17.625 28.2193 17.4538 28.524 17.149C28.8288 16.8443 29 16.431 29 16C29 15.569 28.8288 15.1557 28.524 14.851C28.2193 14.5462 27.806 14.375 27.375 14.375Z" fill="#F4F2EF"/>
</svg>
