<svg width="32" height="32" viewBox="0 0 32 32" fill="none" xmlns="http://www.w3.org/2000/svg">
<path d="M14.4725 29C13.8875 29 13.384 28.805 12.9619 28.415C12.5398 28.025 12.285 27.5483 12.1975 26.985L11.905 24.84C11.6233 24.7317 11.3581 24.6017 11.1094 24.45C10.8607 24.2983 10.6167 24.1358 10.3775 23.9625L8.3625 24.8075C7.82083 25.0458 7.27917 25.0675 6.7375 24.8725C6.19583 24.6775 5.77333 24.3308 5.47 23.8325L3.9425 21.1675C3.63917 20.6692 3.5525 20.1383 3.6825 19.575C3.8125 19.0117 4.105 18.5458 4.56 18.1775L6.2825 16.8775C6.26083 16.7258 6.25 16.5794 6.25 16.4381V15.5606C6.25 15.4202 6.26083 15.2742 6.2825 15.1225L4.56 13.8225C4.105 13.4542 3.8125 12.9883 3.6825 12.425C3.5525 11.8617 3.63917 11.3308 3.9425 10.8325L5.47 8.1675C5.77333 7.66917 6.19583 7.3225 6.7375 7.1275C7.27917 6.9325 7.82083 6.95417 8.3625 7.1925L10.3775 8.0375C10.6158 7.86417 10.865 7.70167 11.125 7.55C11.385 7.39833 11.645 7.26833 11.905 7.16L12.1975 5.015C12.2842 4.45167 12.539 3.975 12.9619 3.585C13.3848 3.195 13.8884 3 14.4725 3H17.5275C18.1125 3 18.6165 3.195 19.0394 3.585C19.4623 3.975 19.7167 4.45167 19.8025 5.015L20.095 7.16C20.3767 7.26833 20.6423 7.39833 20.8919 7.55C21.1415 7.70167 21.385 7.86417 21.6225 8.0375L23.6375 7.1925C24.1792 6.95417 24.7208 6.9325 25.2625 7.1275C25.8042 7.3225 26.2267 7.66917 26.53 8.1675L28.0575 10.8325C28.3608 11.3308 28.4475 11.8617 28.3175 12.425C28.1875 12.9883 27.895 13.4542 27.44 13.8225L25.7175 15.1225C25.7392 15.2742 25.75 15.4206 25.75 15.5619V16.4381C25.75 16.5794 25.7283 16.7258 25.685 16.8775L27.4075 18.1775C27.8625 18.5458 28.155 19.0117 28.285 19.575C28.415 20.1383 28.3283 20.6692 28.025 21.1675L26.465 23.8325C26.1617 24.3308 25.7392 24.6775 25.1975 24.8725C24.6558 25.0675 24.1142 25.0458 23.5725 24.8075L21.6225 23.9625C21.3842 24.1358 21.135 24.2983 20.875 24.45C20.615 24.6017 20.355 24.7317 20.095 24.84L19.8025 26.985C19.7158 27.5483 19.4615 28.025 19.0394 28.415C18.6173 28.805 18.1134 29 17.5275 29H14.4725ZM16.065 20.55C17.3217 20.55 18.3942 20.1058 19.2825 19.2175C20.1708 18.3292 20.615 17.2567 20.615 16C20.615 14.7433 20.1708 13.6708 19.2825 12.7825C18.3942 11.8942 17.3217 11.45 16.065 11.45C14.7867 11.45 13.7085 11.8942 12.8306 12.7825C11.9527 13.6708 11.5141 14.7433 11.515 16C11.5159 17.2567 11.9548 18.3292 12.8319 19.2175C13.709 20.1058 14.7867 20.55 16.065 20.55Z" fill="#F4F2EF"/>
</svg>
