<svg width="16" height="16" viewBox="0 0 16 16" fill="currentColor" xmlns="http://www.w3.org/2000/svg">
<path d="M7.4125 13C7.1875 13 6.99383 12.925 6.8315 12.775C6.66916 12.625 6.57116 12.4417 6.5375 12.225L6.425 11.4C6.31666 11.3583 6.21466 11.3083 6.119 11.25C6.02333 11.1917 5.9295 11.1292 5.8375 11.0625L5.0625 11.3875C4.85416 11.4792 4.64583 11.4875 4.4375 11.4125C4.22916 11.3375 4.06666 11.2042 3.95 11.0125L3.3625 9.9875C3.24583 9.79583 3.2125 9.59167 3.2625 9.375C3.3125 9.15833 3.425 8.97917 3.6 8.8375L4.2625 8.3375C4.25416 8.27917 4.25 8.22283 4.25 8.1685V7.831C4.25 7.777 4.25416 7.72083 4.2625 7.6625L3.6 7.1625C3.425 7.02083 3.3125 6.84167 3.2625 6.625C3.2125 6.40833 3.24583 6.20417 3.3625 6.0125L3.95 4.9875C4.06666 4.79583 4.22916 4.6625 4.4375 4.5875C4.64583 4.5125 4.85416 4.52083 5.0625 4.6125L5.8375 4.9375C5.92916 4.87083 6.025 4.80833 6.125 4.75C6.225 4.69167 6.325 4.64167 6.425 4.6L6.5375 3.775C6.57083 3.55833 6.66883 3.375 6.8315 3.225C6.99416 3.075 7.18783 3 7.4125 3H8.5875C8.8125 3 9.00633 3.075 9.169 3.225C9.33166 3.375 9.4295 3.55833 9.4625 3.775L9.575 4.6C9.68333 4.64167 9.7855 4.69167 9.8815 4.75C9.9775 4.80833 10.0712 4.87083 10.1625 4.9375L10.9375 4.6125C11.1458 4.52083 11.3542 4.5125 11.5625 4.5875C11.7708 4.6625 11.9333 4.79583 12.05 4.9875L12.6375 6.0125C12.7542 6.20417 12.7875 6.40833 12.7375 6.625C12.6875 6.84167 12.575 7.02083 12.4 7.1625L11.7375 7.6625C11.7458 7.72083 11.75 7.77717 11.75 7.8315V8.1685C11.75 8.22283 11.7417 8.27917 11.725 8.3375L12.3875 8.8375C12.5625 8.97917 12.675 9.15833 12.725 9.375C12.775 9.59167 12.7417 9.79583 12.625 9.9875L12.025 11.0125C11.9083 11.2042 11.7458 11.3375 11.5375 11.4125C11.3292 11.4875 11.1208 11.4792 10.9125 11.3875L10.1625 11.0625C10.0708 11.1292 9.975 11.1917 9.875 11.25C9.775 11.3083 9.675 11.3583 9.575 11.4L9.4625 12.225C9.42916 12.4417 9.33133 12.625 9.169 12.775C9.00666 12.925 8.81283 13 8.5875 13H7.4125ZM8.025 9.75C8.50833 9.75 8.92083 9.57917 9.2625 9.2375C9.60416 8.89583 9.775 8.48333 9.775 8C9.775 7.51667 9.60416 7.10417 9.2625 6.7625C8.92083 6.42083 8.50833 6.25 8.025 6.25C7.53333 6.25 7.11866 6.42083 6.781 6.7625C6.44333 7.10417 6.27466 7.51667 6.275 8C6.27533 8.48333 6.44416 8.89583 6.7815 9.2375C7.11883 9.57917 7.53333 9.75 8.025 9.75Z" fill="#F4F2EF"/>
</svg>
