<svg width="24" height="24" viewBox="0 0 24 24" fill="currentColor" xmlns="http://www.w3.org/2000/svg">
<path d="M10.9425 21C10.5375 21 10.1889 20.865 9.8967 20.595C9.6045 20.325 9.4281 19.995 9.3675 19.605L9.165 18.12C8.97 18.045 8.7864 17.955 8.6142 17.85C8.442 17.745 8.2731 17.6325 8.1075 17.5125L6.7125 18.0975C6.3375 18.2625 5.9625 18.2775 5.5875 18.1425C5.2125 18.0075 4.92 17.7675 4.71 17.4225L3.6525 15.5775C3.4425 15.2325 3.3825 14.865 3.4725 14.475C3.5625 14.085 3.765 13.7625 4.08 13.5075L5.2725 12.6075C5.2575 12.5025 5.25 12.4011 5.25 12.3033V11.6958C5.25 11.5986 5.2575 11.4975 5.2725 11.3925L4.08 10.4925C3.765 10.2375 3.5625 9.915 3.4725 9.525C3.3825 9.135 3.4425 8.7675 3.6525 8.4225L4.71 6.5775C4.92 6.2325 5.2125 5.9925 5.5875 5.8575C5.9625 5.7225 6.3375 5.7375 6.7125 5.9025L8.1075 6.4875C8.2725 6.3675 8.445 6.255 8.625 6.15C8.805 6.045 8.985 5.955 9.165 5.88L9.3675 4.395C9.4275 4.005 9.6039 3.675 9.8967 3.405C10.1895 3.135 10.5381 3 10.9425 3H13.0575C13.4625 3 13.8114 3.135 14.1042 3.405C14.397 3.675 14.5731 4.005 14.6325 4.395L14.835 5.88C15.03 5.955 15.2139 6.045 15.3867 6.15C15.5595 6.255 15.7281 6.3675 15.8925 6.4875L17.2875 5.9025C17.6625 5.7375 18.0375 5.7225 18.4125 5.8575C18.7875 5.9925 19.08 6.2325 19.29 6.5775L20.3475 8.4225C20.5575 8.7675 20.6175 9.135 20.5275 9.525C20.4375 9.915 20.235 10.2375 19.92 10.4925L18.7275 11.3925C18.7425 11.4975 18.75 11.5989 18.75 11.6967V12.3033C18.75 12.4011 18.735 12.5025 18.705 12.6075L19.8975 13.5075C20.2125 13.7625 20.415 14.085 20.505 14.475C20.595 14.865 20.535 15.2325 20.325 15.5775L19.245 17.4225C19.035 17.7675 18.7425 18.0075 18.3675 18.1425C17.9925 18.2775 17.6175 18.2625 17.2425 18.0975L15.8925 17.5125C15.7275 17.6325 15.555 17.745 15.375 17.85C15.195 17.955 15.015 18.045 14.835 18.12L14.6325 19.605C14.5725 19.995 14.3964 20.325 14.1042 20.595C13.812 20.865 13.4631 21 13.0575 21H10.9425ZM12.045 15.15C12.915 15.15 13.6575 14.8425 14.2725 14.2275C14.8875 13.6125 15.195 12.87 15.195 12C15.195 11.13 14.8875 10.3875 14.2725 9.7725C13.6575 9.1575 12.915 8.85 12.045 8.85C11.16 8.85 10.4136 9.1575 9.8058 9.7725C9.198 10.3875 8.8944 11.13 8.895 12C8.8956 12.87 9.1995 13.6125 9.8067 14.2275C10.4139 14.8425 11.16 15.15 12.045 15.15Z" fill="#F4F2EF"/>
</svg>
