<svg width="16" height="16" viewBox="0 0 16 16" fill="currentColor" xmlns="http://www.w3.org/2000/svg">
<path d="M5.22223 13C4.91667 13 4.65519 12.8913 4.43778 12.6739C4.22037 12.4565 4.11149 12.1948 4.11111 11.8889V4.66667C3.95371 4.66667 3.82186 4.61333 3.71556 4.50667C3.60926 4.4 3.55593 4.26815 3.55556 4.11111C3.55519 3.95407 3.60852 3.82222 3.71556 3.71556C3.8226 3.60889 3.95445 3.55556 4.11111 3.55556H6.33334C6.33334 3.39815 6.38667 3.2663 6.49334 3.16C6.6 3.0537 6.73186 3.00037 6.88889 3H9.11111C9.26852 3 9.40056 3.05333 9.50723 3.16C9.61389 3.26667 9.66704 3.39852 9.66667 3.55556H11.8889C12.0463 3.55556 12.1783 3.60889 12.285 3.71556C12.3917 3.82222 12.4448 3.95407 12.4444 4.11111C12.4441 4.26815 12.3907 4.40018 12.2844 4.50722C12.1782 4.61426 12.0463 4.66741 11.8889 4.66667V11.8889C11.8889 12.1944 11.7802 12.4561 11.5628 12.6739C11.3454 12.8917 11.0837 13.0004 10.7778 13H5.22223ZM7.285 10.6178C7.3913 10.5119 7.44445 10.38 7.44445 10.2222V6.33333C7.44445 6.17593 7.39111 6.04407 7.28445 5.93778C7.17778 5.83148 7.04593 5.77815 6.88889 5.77778C6.73186 5.77741 6.6 5.83074 6.49334 5.93778C6.38667 6.04481 6.33334 6.17667 6.33334 6.33333V10.2222C6.33334 10.3796 6.38667 10.5117 6.49334 10.6183C6.6 10.725 6.73186 10.7781 6.88889 10.7778C7.04593 10.7774 7.17797 10.7241 7.285 10.6178ZM9.50723 10.6178C9.61352 10.5119 9.66667 10.38 9.66667 10.2222V6.33333C9.66667 6.17593 9.61334 6.04407 9.50667 5.93778C9.4 5.83148 9.26815 5.77815 9.11111 5.77778C8.95408 5.77741 8.82223 5.83074 8.71556 5.93778C8.60889 6.04481 8.55556 6.17667 8.55556 6.33333V10.2222C8.55556 10.3796 8.60889 10.5117 8.71556 10.6183C8.82223 10.725 8.95408 10.7781 9.11111 10.7778C9.26815 10.7774 9.40019 10.7241 9.50723 10.6178Z" fill="#F4F2EF"/>
</svg>
