<svg width="32" height="32" viewBox="0 0 32 32" fill="none" xmlns="http://www.w3.org/2000/svg">
<path d="M8.77778 29C7.98334 29 7.30348 28.7174 6.73822 28.1521C6.17297 27.5868 5.88985 26.9065 5.88889 26.1111V7.33333C5.47963 7.33333 5.13682 7.19467 4.86045 6.91733C4.58408 6.64 4.44541 6.29718 4.44445 5.88889C4.44348 5.48059 4.58215 5.13778 4.86045 4.86044C5.13874 4.58311 5.48156 4.44444 5.88889 4.44444H11.6667C11.6667 4.03519 11.8053 3.69237 12.0827 3.416C12.36 3.13963 12.7028 3.00096 13.1111 3H18.8889C19.2981 3 19.6414 3.13867 19.9188 3.416C20.1961 3.69333 20.3343 4.03615 20.3333 4.44444H26.1111C26.5204 4.44444 26.8637 4.58311 27.141 4.86044C27.4183 5.13778 27.5565 5.48059 27.5556 5.88889C27.5546 6.29718 27.4159 6.64048 27.1396 6.91878C26.8632 7.19707 26.5204 7.33526 26.1111 7.33333V26.1111C26.1111 26.9056 25.8285 27.5859 25.2632 28.1521C24.698 28.7183 24.0176 29.001 23.2222 29H8.77778ZM14.141 22.8062C14.4174 22.5308 14.5556 22.188 14.5556 21.7778V11.6667C14.5556 11.2574 14.4169 10.9146 14.1396 10.6382C13.8622 10.3619 13.5194 10.2232 13.1111 10.2222C12.7028 10.2213 12.36 10.3599 12.0827 10.6382C11.8053 10.9165 11.6667 11.2593 11.6667 11.6667V21.7778C11.6667 22.187 11.8053 22.5303 12.0827 22.8077C12.36 23.085 12.7028 23.2232 13.1111 23.2222C13.5194 23.2213 13.8627 23.0826 14.141 22.8062ZM19.9188 22.8062C20.1951 22.5308 20.3333 22.188 20.3333 21.7778V11.6667C20.3333 11.2574 20.1947 10.9146 19.9173 10.6382C19.64 10.3619 19.2972 10.2232 18.8889 10.2222C18.4806 10.2213 18.1378 10.3599 17.8604 10.6382C17.5831 10.9165 17.4444 11.2593 17.4444 11.6667V21.7778C17.4444 22.187 17.5831 22.5303 17.8604 22.8077C18.1378 23.085 18.4806 23.2232 18.8889 23.2222C19.2972 23.2213 19.6405 23.0826 19.9188 22.8062Z" fill="#F4F2EF"/>
</svg>
