<svg width="24" height="24" viewBox="0 0 24 24" fill="none" xmlns="http://www.w3.org/2000/svg">
<path d="M12 10V19M9 13L12 10L15 13M17.5 15C19.019 15 20 13.769 20 12.25C19.9999 11.6486 19.8028 11.0638 19.4387 10.5852C19.0745 10.1066 18.5636 9.76051 17.984 9.6C17.8948 8.47846 17.43 7.41977 16.6647 6.59509C15.8994 5.77042 14.8783 5.22796 13.7665 5.05543C12.6547 4.88289 11.5173 5.09036 10.538 5.64429C9.55872 6.19822 8.79489 7.06624 8.37 8.108C7.47543 7.86002 6.51898 7.97757 5.71107 8.43478C4.90317 8.892 4.30998 9.65143 4.062 10.546C3.81402 11.4406 3.93157 12.397 4.38878 13.2049C4.846 14.0128 5.60543 14.606 6.5 14.854" stroke="#F4F2EF" stroke-width="1.5" stroke-linecap="round" stroke-linejoin="round"/>
</svg>
