<svg width="16" height="16" viewBox="0 0 16 16" fill="none" xmlns="http://www.w3.org/2000/svg">
<path d="M8 6.66667V12.6667M6 8.66667L8 6.66667L10 8.66667M11.6667 10C12.6793 10 13.3333 9.17933 13.3333 8.16667C13.3333 7.76575 13.2018 7.37589 12.9591 7.05681C12.7164 6.73772 12.3757 6.50701 11.9893 6.4C11.9299 5.65231 11.62 4.94651 11.1098 4.39673C10.5996 3.84695 9.91885 3.48531 9.17767 3.37029C8.43649 3.25526 7.67817 3.39357 7.02533 3.76286C6.37248 4.13215 5.86326 4.71082 5.58 5.40533C4.98362 5.24002 4.34599 5.31838 3.80738 5.62319C3.26878 5.928 2.87332 6.43428 2.708 7.03067C2.54268 7.62705 2.62105 8.26468 2.92586 8.80328C3.23067 9.34189 3.73695 9.73735 4.33333 9.90267" stroke="#F4F2EF" stroke-linecap="round" stroke-linejoin="round"/>
</svg>
