<svg width="32" height="32" viewBox="0 0 32 32" fill="none" xmlns="http://www.w3.org/2000/svg">
<path d="M16 13.3333V25.3333M12 17.3333L16 13.3333L20 17.3333M23.3333 20C25.3587 20 26.6667 18.3587 26.6667 16.3333C26.6666 15.5315 26.4037 14.7518 25.9182 14.1136C25.4327 13.4754 24.7514 13.014 23.9787 12.8C23.8598 11.3046 23.24 9.89302 22.2196 8.79346C21.1992 7.69389 19.8377 6.97062 18.3553 6.74057C16.873 6.51052 15.3563 6.78714 14.0507 7.52572C12.745 8.26429 11.7265 9.42165 11.16 10.8107C9.96723 10.48 8.69197 10.6368 7.61477 11.2464C6.53756 11.856 5.74664 12.8686 5.416 14.0613C5.08536 15.2541 5.24209 16.5294 5.85171 17.6066C6.46133 18.6838 7.4739 19.4747 8.66667 19.8053" stroke="currentColor" stroke-width="2" stroke-linecap="round" stroke-linejoin="round"/>
</svg>
