<svg width="32" height="32" viewBox="0 0 32 32" fill="currentColor" xmlns="http://www.w3.org/2000/svg">
<path d="M11.8919 21.3174L26.1416 7.06765C26.4779 6.73137 26.8702 6.56323 27.3186 6.56323C27.767 6.56323 28.1593 6.73137 28.4956 7.06765C28.8319 7.40392 29 7.80353 29 8.26647C29 8.72941 28.8319 9.12846 28.4956 9.46362L13.0689 24.9323C12.7326 25.2686 12.3403 25.4368 11.8919 25.4368C11.4436 25.4368 11.0512 25.2686 10.715 24.9323L3.48501 17.7024C3.14874 17.3661 2.98732 16.9671 3.00078 16.5052C3.01423 16.0434 3.18965 15.6438 3.52705 15.3064C3.86445 14.969 4.26406 14.8009 4.72588 14.802C5.18769 14.8031 5.58674 14.9713 5.92302 15.3064L11.8919 21.3174Z" fill="#F4F2EF"/>
</svg>
