<svg width="24" height="24" viewBox="0 0 24 24" fill="currentColor" xmlns="http://www.w3.org/2000/svg">
<path d="M9.15595 15.6813L19.0211 5.81607C19.2539 5.58326 19.5256 5.46686 19.836 5.46686C20.1464 5.46686 20.418 5.58326 20.6508 5.81607C20.8836 6.04888 21 6.32553 21 6.64602C21 6.96652 20.8836 7.24279 20.6508 7.47482L9.97077 18.1839C9.73797 18.4167 9.46636 18.5331 9.15595 18.5331C8.84554 18.5331 8.57393 18.4167 8.34113 18.1839L3.33578 13.1786C3.10297 12.9458 2.99122 12.6695 3.00054 12.3498C3.00985 12.0301 3.1313 11.7534 3.36488 11.5198C3.59846 11.2863 3.87512 11.1698 4.19484 11.1706C4.51456 11.1714 4.79082 11.2878 5.02363 11.5198L9.15595 15.6813Z" fill="#F4F2EF"/>
</svg>
