<svg width="16" height="16" viewBox="0 0 16 16" fill="currentColor" xmlns="http://www.w3.org/2000/svg">
<path d="M6.41997 10.0451L11.9006 4.56449C12.03 4.43515 12.1809 4.37048 12.3533 4.37048C12.5258 4.37048 12.6767 4.43515 12.806 4.56449C12.9353 4.69383 13 4.84752 13 5.02558C13 5.20363 12.9353 5.35711 12.806 5.48602L6.87265 11.4355C6.74332 11.5649 6.59242 11.6295 6.41997 11.6295C6.24752 11.6295 6.09663 11.5649 5.96729 11.4355L3.18654 8.65478C3.05721 8.52544 2.99512 8.37196 3.0003 8.19434C3.00547 8.01671 3.07294 7.86302 3.20271 7.73325C3.33248 7.60348 3.48618 7.53881 3.6638 7.53924C3.84142 7.53967 3.9949 7.60434 4.12424 7.73325L6.41997 10.0451Z" fill="#F4F2EF"/>
</svg>
