<svg width="16" height="16" viewBox="0 0 16 16" fill="none" xmlns="http://www.w3.org/2000/svg">
<path fill-rule="evenodd" clip-rule="evenodd" d="M8.44167 9.69166C8.32448 9.8087 8.16563 9.87444 8 9.87444C7.83438 9.87444 7.67553 9.8087 7.55834 9.69166L5.20084 7.33499C5.08365 7.21775 5.01783 7.05875 5.01787 6.89297C5.01791 6.7272 5.0838 6.56823 5.20105 6.45104C5.31829 6.33384 5.47729 6.26803 5.64307 6.26807C5.80884 6.26811 5.96781 6.334 6.085 6.45124L8 8.36624L9.915 6.45124C10.0328 6.33734 10.1907 6.27427 10.3545 6.27561C10.5184 6.27696 10.6752 6.34262 10.7911 6.45844C10.9071 6.57427 10.9729 6.731 10.9744 6.89487C10.9759 7.05874 10.913 7.21665 10.7992 7.33458L8.44209 9.69208L8.44167 9.69166Z" fill="#F4F2EF"/>
</svg>
