<svg width="24" height="24" viewBox="0 0 24 24" fill="none" xmlns="http://www.w3.org/2000/svg">
<path fill-rule="evenodd" clip-rule="evenodd" d="M8.95499 11.205C8.74431 11.4159 8.62598 11.7019 8.62598 12C8.62598 12.2981 8.74431 12.5841 8.95499 12.795L13.197 17.0385C13.3015 17.143 13.4255 17.2258 13.5621 17.2823C13.6986 17.3388 13.8449 17.3679 13.9926 17.3678C14.1404 17.3678 14.2867 17.3387 14.4232 17.2821C14.5597 17.2255 14.6837 17.1426 14.7881 17.0381C14.8926 16.9336 14.9754 16.8096 15.0319 16.6731C15.0884 16.5365 15.1175 16.3902 15.1175 16.2425C15.1174 16.0947 15.0883 15.9484 15.0317 15.812C14.9751 15.6755 14.8922 15.5515 14.7877 15.447L11.3415 12L14.7885 8.553C14.896 8.44927 14.9817 8.32518 15.0408 8.18795C15.0998 8.05072 15.1309 7.90312 15.1323 7.75374C15.1336 7.60437 15.1052 7.45621 15.0487 7.31793C14.9922 7.17964 14.9088 7.054 14.8032 6.94832C14.6976 6.84264 14.572 6.75905 14.4338 6.70242C14.2956 6.64578 14.1474 6.61725 13.9981 6.61848C13.8487 6.6197 13.7011 6.65067 13.5638 6.70956C13.4265 6.76846 13.3023 6.8541 13.1985 6.9615L8.95499 11.205Z" fill="#F4F2EF"/>
</svg>
