<svg width="32" height="32" viewBox="0 0 32 32" fill="currentColor" xmlns="http://www.w3.org/2000/svg">
<path fill-rule="evenodd" clip-rule="evenodd" d="M20.3984 14.8517C20.7027 15.1563 20.8736 15.5694 20.8736 16C20.8736 16.4306 20.7027 16.8436 20.3984 17.1483L14.271 23.2778C14.1201 23.4287 13.9409 23.5484 13.7437 23.63C13.5465 23.7116 13.3352 23.7536 13.1218 23.7535C12.9084 23.7535 12.697 23.7114 12.4999 23.6297C12.3027 23.548 12.1236 23.4282 11.9727 23.2773C11.8219 23.1263 11.7022 22.9472 11.6206 22.75C11.5389 22.5528 11.497 22.3414 11.497 22.128C11.4971 21.9146 11.5391 21.7033 11.6209 21.5061C11.7026 21.309 11.8223 21.1299 11.9733 20.979L16.9512 16L11.9722 11.021C11.8169 10.8712 11.693 10.6919 11.6078 10.4937C11.5225 10.2955 11.4776 10.0823 11.4756 9.86651C11.4736 9.65074 11.5147 9.43674 11.5963 9.237C11.6779 9.03725 11.7985 8.85576 11.951 8.70312C12.1035 8.55047 12.2848 8.42972 12.4845 8.34792C12.6842 8.26612 12.8981 8.22491 13.1139 8.22668C13.3297 8.22845 13.5429 8.27318 13.7412 8.35825C13.9395 8.44332 14.1189 8.56703 14.2689 8.72216L20.3984 14.8517Z" fill="#F4F2EF"/>
</svg>
