<svg width="24" height="24" viewBox="0 0 24 24" fill="currentColor" xmlns="http://www.w3.org/2000/svg">
<path fill-rule="evenodd" clip-rule="evenodd" d="M11.205 8.95499C11.4159 8.74431 11.7019 8.62598 12 8.62598C12.2981 8.62598 12.5841 8.74431 12.795 8.95499L17.0385 13.197C17.143 13.3015 17.2258 13.4255 17.2823 13.5621C17.3388 13.6986 17.3679 13.8449 17.3678 13.9926C17.3678 14.1404 17.3387 14.2867 17.2821 14.4232C17.2255 14.5597 17.1426 14.6837 17.0381 14.7881C16.9336 14.8926 16.8096 14.9754 16.6731 15.0319C16.5365 15.0884 16.3902 15.1175 16.2425 15.1175C16.0947 15.1174 15.9484 15.0883 15.812 15.0317C15.6755 14.9751 15.5515 14.8922 15.447 14.7877L12 11.3415L8.553 14.7885C8.44927 14.896 8.32518 14.9817 8.18795 15.0408C8.05072 15.0998 7.90312 15.1309 7.75374 15.1323C7.60437 15.1336 7.45621 15.1052 7.31793 15.0487C7.17964 14.9922 7.054 14.9088 6.94832 14.8032C6.84264 14.6976 6.75905 14.572 6.70242 14.4338C6.64578 14.2956 6.61725 14.1474 6.61848 13.9981C6.6197 13.8487 6.65067 13.7011 6.70956 13.5638C6.76846 13.4265 6.8541 13.3023 6.9615 13.1985L11.205 8.95499Z" fill="#F4F2EF"/>
</svg>
