<svg width="16" height="16" viewBox="0 0 16 16" fill="none" xmlns="http://www.w3.org/2000/svg">
<path fill-rule="evenodd" clip-rule="evenodd" d="M9.69167 7.55834C9.80871 7.67553 9.87445 7.83439 9.87445 8.00001C9.87445 8.16564 9.80871 8.32449 9.69167 8.44168L7.335 10.7992C7.27695 10.8572 7.20803 10.9032 7.13219 10.9346C7.05634 10.966 6.97506 10.9822 6.89298 10.9821C6.8109 10.9821 6.72962 10.9659 6.65379 10.9345C6.57796 10.9031 6.50907 10.857 6.45104 10.799C6.39301 10.7409 6.34699 10.672 6.3156 10.5962C6.2842 10.5203 6.26805 10.439 6.26807 10.3569C6.26809 10.2749 6.28428 10.1936 6.31571 10.1178C6.34714 10.0419 6.3932 9.97304 6.45125 9.91501L8.36583 8.00001L6.45083 6.08501C6.39111 6.02738 6.34347 5.95844 6.31068 5.8822C6.27789 5.80597 6.26061 5.72396 6.25985 5.64098C6.25909 5.55799 6.27486 5.47568 6.30625 5.39886C6.33764 5.32204 6.38401 5.25223 6.44267 5.19352C6.50132 5.13481 6.57108 5.08837 6.64788 5.05691C6.72468 5.02545 6.80697 5.00959 6.88995 5.01027C6.97294 5.01096 7.05496 5.02816 7.13123 5.06088C7.2075 5.0936 7.27648 5.14118 7.33417 5.20084L9.69167 7.55834Z" fill="#F4F2EF"/>
</svg>
