<svg width="24" height="24" viewBox="0 0 24 24" fill="currentColor" xmlns="http://www.w3.org/2000/svg">
<path fill-rule="evenodd" clip-rule="evenodd" d="M12.795 15.045C12.5841 15.2557 12.2981 15.374 12 15.374C11.7019 15.374 11.4159 15.2557 11.205 15.045L6.9615 10.803C6.75056 10.592 6.63209 10.3058 6.63216 10.0074C6.63223 9.70897 6.75083 9.42283 6.96188 9.21188C7.17292 9.00094 7.45912 8.88247 7.75752 8.88254C8.05591 8.88261 8.34205 9.00121 8.553 9.21226L12 12.6593L15.447 9.21226C15.6591 9.00723 15.9432 8.8937 16.2382 8.89612C16.5332 8.89855 16.8154 9.01673 17.0241 9.22521C17.2327 9.4337 17.3512 9.71581 17.3539 10.0108C17.3566 10.3058 17.2433 10.59 17.0385 10.8023L12.7958 15.0458L12.795 15.045Z" fill="#F4F2EF"/>
</svg>
