<svg width="32" height="32" viewBox="0 0 32 32" fill="currentColor" xmlns="http://www.w3.org/2000/svg">
<path fill-rule="evenodd" clip-rule="evenodd" d="M11.6016 14.8517C11.2973 15.1563 11.1264 15.5694 11.1264 16C11.1264 16.4306 11.2973 16.8436 11.6016 17.1483L17.729 23.2778C17.8799 23.4287 18.0591 23.5484 18.2563 23.63C18.4535 23.7116 18.6648 23.7536 18.8782 23.7535C19.0917 23.7535 19.303 23.7114 19.5001 23.6297C19.6973 23.548 19.8764 23.4282 20.0273 23.2773C20.1781 23.1263 20.2978 22.9472 20.3794 22.75C20.4611 22.5528 20.503 22.3414 20.503 22.128C20.5029 21.9146 20.4609 21.7033 20.3791 21.5061C20.2974 21.309 20.1777 21.1299 20.0267 20.979L15.0488 16L20.0278 11.021C20.1831 10.8712 20.307 10.6919 20.3922 10.4937C20.4775 10.2955 20.5224 10.0823 20.5244 9.86651C20.5264 9.65074 20.4853 9.43674 20.4037 9.237C20.3221 9.03725 20.2015 8.85576 20.049 8.70312C19.8965 8.55047 19.7152 8.42972 19.5155 8.34792C19.3158 8.26612 19.1019 8.22491 18.8861 8.22668C18.6703 8.22845 18.4571 8.27318 18.2588 8.35825C18.0605 8.44332 17.8811 8.56703 17.7311 8.72216L11.6016 14.8517Z" fill="#F4F2EF"/>
</svg>
