<svg width="24" height="24" viewBox="0 0 24 24" fill="currentColor" xmlns="http://www.w3.org/2000/svg">
<path fill-rule="evenodd" clip-rule="evenodd" d="M15.045 11.205C15.2557 11.4159 15.374 11.7019 15.374 12C15.374 12.2981 15.2557 12.5841 15.045 12.795L10.803 17.0385C10.6985 17.143 10.5745 17.2258 10.4379 17.2823C10.3014 17.3388 10.1551 17.3679 10.0074 17.3678C9.85962 17.3678 9.71333 17.3387 9.57684 17.2821C9.44035 17.2255 9.31634 17.1426 9.21189 17.0381C9.10744 16.9336 9.02459 16.8096 8.96808 16.6731C8.91158 16.5365 8.88251 16.3902 8.88254 16.2425C8.88258 16.0947 8.91171 15.9484 8.96829 15.812C9.02486 15.6755 9.10776 15.5515 9.21226 15.447L12.6585 12L9.21151 8.553C9.10402 8.44927 9.01825 8.32518 8.95923 8.18795C8.90021 8.05072 8.8691 7.90312 8.86774 7.75374C8.86637 7.60437 8.89476 7.45621 8.95126 7.31793C9.00776 7.17964 9.09124 7.054 9.19682 6.94832C9.3024 6.84264 9.42797 6.75905 9.5662 6.70242C9.70443 6.64578 9.85255 6.61725 10.0019 6.61848C10.1513 6.6197 10.2989 6.65067 10.4362 6.70956C10.5735 6.76846 10.6977 6.8541 10.8015 6.9615L15.045 11.205Z" fill="#F4F2EF"/>
</svg>
