<svg width="32" height="32" viewBox="0 0 32 32" fill="none" xmlns="http://www.w3.org/2000/svg">
<path fill-rule="evenodd" clip-rule="evenodd" d="M14.8517 11.6017C15.1563 11.2974 15.5694 11.1264 16 11.1264C16.4306 11.1264 16.8436 11.2974 17.1483 11.6017L23.2778 17.729C23.4287 17.8799 23.5484 18.0591 23.63 18.2563C23.7116 18.4535 23.7536 18.6648 23.7535 18.8783C23.7535 19.0917 23.7114 19.303 23.6297 19.5001C23.548 19.6973 23.4282 19.8764 23.2773 20.0273C23.1263 20.1782 22.9472 20.2978 22.75 20.3795C22.5528 20.4611 22.3414 20.5031 22.128 20.503C21.9146 20.503 21.7033 20.4609 21.5061 20.3792C21.309 20.2974 21.1299 20.1777 20.979 20.0268L16 15.0488L11.021 20.0278C10.8712 20.1831 10.6919 20.307 10.4937 20.3922C10.2955 20.4775 10.0823 20.5224 9.86651 20.5244C9.65074 20.5264 9.43674 20.4854 9.237 20.4038C9.03725 20.3221 8.85576 20.2016 8.70312 20.0491C8.55047 19.8966 8.42972 19.7152 8.34792 19.5155C8.26612 19.3159 8.22491 19.1019 8.22668 18.8861C8.22845 18.6704 8.27318 18.4571 8.35825 18.2588C8.44332 18.0605 8.56703 17.8811 8.72216 17.7312L14.8517 11.6017Z" fill="#F4F2EF"/>
</svg>
