<svg width="16" height="16" viewBox="0 0 16 16" fill="none" xmlns="http://www.w3.org/2000/svg">
<path fill-rule="evenodd" clip-rule="evenodd" d="M6.30833 7.55834C6.19129 7.67553 6.12555 7.83439 6.12555 8.00001C6.12555 8.16564 6.19129 8.32449 6.30833 8.44168L8.665 10.7992C8.72305 10.8572 8.79197 10.9032 8.86781 10.9346C8.94366 10.966 9.02494 10.9822 9.10702 10.9821C9.1891 10.9821 9.27038 10.9659 9.34621 10.9345C9.42204 10.9031 9.49093 10.857 9.54896 10.799C9.60699 10.7409 9.65301 10.672 9.6844 10.5962C9.7158 10.5203 9.73195 10.439 9.73193 10.3569C9.73191 10.2749 9.71572 10.1936 9.68429 10.1178C9.65286 10.0419 9.6068 9.97304 9.54875 9.91501L7.63417 8.00001L9.54917 6.08501C9.60889 6.02738 9.65653 5.95844 9.68932 5.8822C9.72211 5.80597 9.73939 5.72396 9.74015 5.64098C9.74091 5.55799 9.72514 5.47568 9.69375 5.39886C9.66236 5.32204 9.61599 5.25223 9.55733 5.19352C9.49868 5.13481 9.42892 5.08837 9.35212 5.05691C9.27532 5.02545 9.19303 5.00959 9.11005 5.01027C9.02706 5.01096 8.94504 5.02816 8.86877 5.06088C8.7925 5.0936 8.72352 5.14118 8.66583 5.20084L6.30833 7.55834Z" fill="#F4F2EF"/>
</svg>
