<svg width="32" height="32" viewBox="0 0 32 32" fill="none" xmlns="http://www.w3.org/2000/svg">
<path fill-rule="evenodd" clip-rule="evenodd" d="M17.1483 20.3984C16.8436 20.7027 16.4306 20.8736 16 20.8736C15.5694 20.8736 15.1564 20.7027 14.8517 20.3984L8.72217 14.271C8.41747 13.9662 8.24634 13.5528 8.24644 13.1218C8.24655 12.6908 8.41786 12.2774 8.72271 11.9727C9.02755 11.668 9.44095 11.4969 9.87197 11.497C10.303 11.4971 10.7163 11.6684 11.021 11.9733L16 16.9523L20.979 11.9733C21.2853 11.6771 21.6957 11.5131 22.1218 11.5166C22.5479 11.5201 22.9555 11.6908 23.257 11.992C23.5584 12.2931 23.7295 12.7006 23.7334 13.1267C23.7373 13.5528 23.5737 13.9633 23.2778 14.2699L17.1494 20.3994L17.1483 20.3984Z" fill="#F4F2EF"/>
</svg>
