<svg width="16" height="16" viewBox="0 0 16 16" fill="currentColor" xmlns="http://www.w3.org/2000/svg">
<path fill-rule="evenodd" clip-rule="evenodd" d="M7.55833 6.30833C7.67552 6.19129 7.83437 6.12555 8 6.12555C8.16562 6.12555 8.32447 6.19129 8.44166 6.30833L10.7992 8.665C10.8572 8.72305 10.9032 8.79197 10.9346 8.86781C10.966 8.94366 10.9822 9.02494 10.9821 9.10702C10.9821 9.1891 10.9659 9.27038 10.9345 9.34621C10.9031 9.42204 10.857 9.49093 10.799 9.54896C10.7409 9.60699 10.672 9.65301 10.5961 9.6844C10.5203 9.7158 10.439 9.73195 10.3569 9.73193C10.2748 9.73191 10.1936 9.71572 10.1177 9.68429C10.0419 9.65286 9.97302 9.6068 9.915 9.54875L8 7.63417L6.085 9.54917C6.02737 9.60889 5.95843 9.65653 5.88219 9.68932C5.80595 9.72211 5.72395 9.73939 5.64096 9.74015C5.55798 9.74091 5.47567 9.72514 5.39884 9.69375C5.32202 9.66236 5.25222 9.61599 5.19351 9.55733C5.1348 9.49868 5.08835 9.42892 5.05689 9.35212C5.02543 9.27532 5.00958 9.19303 5.01026 9.11005C5.01094 9.02706 5.02814 8.94504 5.06086 8.86877C5.09358 8.7925 5.14116 8.72352 5.20083 8.66583L7.55833 6.30833Z" fill="#F4F2EF"/>
</svg>
