<svg width="24" height="24" viewBox="0 0 24 24" fill="none" xmlns="http://www.w3.org/2000/svg">
<path d="M21 6.8571C21 6.17511 20.7291 5.52105 20.2469 5.03882C19.7646 4.55658 19.1106 4.28566 18.4286 4.28566H17.7857V3.66088C17.7857 3.31494 17.5197 3.01802 17.1738 3.00074C17.0869 2.99656 17 3.01006 16.9185 3.04044C16.8369 3.07081 16.7624 3.11743 16.6994 3.17746C16.6364 3.23749 16.5862 3.30969 16.552 3.38968C16.5177 3.46967 16.5 3.55578 16.5 3.6428V4.28566H7.49998V3.66088C7.49998 3.31494 7.234 3.01802 6.88806 3.00074C6.80114 2.99656 6.71428 3.01006 6.63273 3.04044C6.55118 3.07081 6.47665 3.11743 6.41365 3.17746C6.35065 3.23749 6.30049 3.30969 6.26622 3.38968C6.23195 3.46967 6.21427 3.55578 6.21427 3.6428V4.28566H5.57141C4.88942 4.28566 4.23536 4.55658 3.75313 5.03882C3.27089 5.52105 2.99997 6.17511 2.99997 6.8571V7.33924C2.99997 7.38187 3.0169 7.42274 3.04704 7.45288C3.07718 7.48302 3.11806 7.49996 3.16068 7.49996H20.8393C20.8819 7.49996 20.9228 7.48302 20.953 7.45288C20.9831 7.42274 21 7.38187 21 7.33924V6.8571ZM2.99997 18.4286C2.99997 19.1105 3.27089 19.7646 3.75313 20.2468C4.23536 20.7291 4.88942 21 5.57141 21H18.4286C19.1106 21 19.7646 20.7291 20.2469 20.2468C20.7291 19.7646 21 19.1105 21 18.4286V8.90621C21 8.87424 20.9873 8.84358 20.9647 8.82098C20.9421 8.79837 20.9115 8.78567 20.8795 8.78567H3.12051C3.08854 8.78567 3.05788 8.79837 3.03527 8.82098C3.01267 8.84358 2.99997 8.87424 2.99997 8.90621V18.4286ZM16.8214 10.0714C17.0122 10.0714 17.1986 10.1279 17.3572 10.2339C17.5157 10.3399 17.6393 10.4905 17.7123 10.6667C17.7853 10.8429 17.8044 11.0368 17.7672 11.2238C17.73 11.4109 17.6382 11.5827 17.5033 11.7175C17.3684 11.8524 17.1966 11.9442 17.0096 11.9814C16.8225 12.0186 16.6286 11.9996 16.4524 11.9266C16.2762 11.8536 16.1256 11.73 16.0197 11.5714C15.9137 11.4128 15.8572 11.2264 15.8572 11.0357C15.8572 10.7799 15.9587 10.5347 16.1396 10.3538C16.3204 10.173 16.5657 10.0714 16.8214 10.0714ZM16.8214 13.2857C17.0122 13.2857 17.1986 13.3422 17.3572 13.4482C17.5157 13.5542 17.6393 13.7048 17.7123 13.881C17.7853 14.0572 17.8044 14.251 17.7672 14.4381C17.73 14.6252 17.6382 14.797 17.5033 14.9318C17.3684 15.0667 17.1966 15.1585 17.0096 15.1957C16.8225 15.2329 16.6286 15.2138 16.4524 15.1409C16.2762 15.0679 16.1256 14.9443 16.0197 14.7857C15.9137 14.6271 15.8572 14.4407 15.8572 14.25C15.8572 13.9942 15.9587 13.749 16.1396 13.5681C16.3204 13.3873 16.5657 13.2857 16.8214 13.2857ZM13.6071 10.0714C13.7979 10.0714 13.9843 10.1279 14.1429 10.2339C14.3015 10.3399 14.425 10.4905 14.498 10.6667C14.571 10.8429 14.5901 11.0368 14.5529 11.2238C14.5157 11.4109 14.4239 11.5827 14.289 11.7175C14.1541 11.8524 13.9823 11.9442 13.7953 11.9814C13.6082 12.0186 13.4143 11.9996 13.2381 11.9266C13.0619 11.8536 12.9113 11.73 12.8054 11.5714C12.6994 11.4128 12.6429 11.2264 12.6429 11.0357C12.6429 10.7799 12.7445 10.5347 12.9253 10.3538C13.1061 10.173 13.3514 10.0714 13.6071 10.0714ZM13.6071 13.2857C13.7979 13.2857 13.9843 13.3422 14.1429 13.4482C14.3015 13.5542 14.425 13.7048 14.498 13.881C14.571 14.0572 14.5901 14.251 14.5529 14.4381C14.5157 14.6252 14.4239 14.797 14.289 14.9318C14.1541 15.0667 13.9823 15.1585 13.7953 15.1957C13.6082 15.2329 13.4143 15.2138 13.2381 15.1409C13.0619 15.0679 12.9113 14.9443 12.8054 14.7857C12.6994 14.6271 12.6429 14.4407 12.6429 14.25C12.6429 13.9942 12.7445 13.749 12.9253 13.5681C13.1061 13.3873 13.3514 13.2857 13.6071 13.2857ZM13.6071 16.5C13.7979 16.5 13.9843 16.5565 14.1429 16.6625C14.3015 16.7685 14.425 16.9191 14.498 17.0953C14.571 17.2715 14.5901 17.4653 14.5529 17.6524C14.5157 17.8395 14.4239 18.0113 14.289 18.1461C14.1541 18.281 13.9823 18.3728 13.7953 18.41C13.6082 18.4472 13.4143 18.4281 13.2381 18.3552C13.0619 18.2822 12.9113 18.1586 12.8054 18C12.6994 17.8414 12.6429 17.655 12.6429 17.4643C12.6429 17.2085 12.7445 16.9633 12.9253 16.7824C13.1061 16.6016 13.3514 16.5 13.6071 16.5ZM10.3928 13.2857C10.5836 13.2857 10.77 13.3422 10.9286 13.4482C11.0872 13.5542 11.2108 13.7048 11.2837 13.881C11.3567 14.0572 11.3758 14.251 11.3386 14.4381C11.3014 14.6252 11.2096 14.797 11.0747 14.9318C10.9398 15.0667 10.768 15.1585 10.581 15.1957C10.3939 15.2329 10.2 15.2138 10.0238 15.1409C9.84763 15.0679 9.69703 14.9443 9.59107 14.7857C9.48512 14.6271 9.42856 14.4407 9.42856 14.25C9.42856 13.9942 9.53016 13.749 9.71099 13.5681C9.89183 13.3873 10.1371 13.2857 10.3928 13.2857ZM10.3928 16.5C10.5836 16.5 10.77 16.5565 10.9286 16.6625C11.0872 16.7685 11.2108 16.9191 11.2837 17.0953C11.3567 17.2715 11.3758 17.4653 11.3386 17.6524C11.3014 17.8395 11.2096 18.0113 11.0747 18.1461C10.9398 18.281 10.768 18.3728 10.581 18.41C10.3939 18.4472 10.2 18.4281 10.0238 18.3552C9.84763 18.2822 9.69703 18.1586 9.59107 18C9.48512 17.8414 9.42856 17.655 9.42856 17.4643C9.42856 17.2085 9.53016 16.9633 9.71099 16.7824C9.89183 16.6016 10.1371 16.5 10.3928 16.5ZM7.17855 13.2857C7.36927 13.2857 7.55571 13.3422 7.71428 13.4482C7.87286 13.5542 7.99646 13.7048 8.06944 13.881C8.14243 14.0572 8.16152 14.251 8.12431 14.4381C8.08711 14.6252 7.99527 14.797 7.86041 14.9318C7.72555 15.0667 7.55373 15.1585 7.36668 15.1957C7.17962 15.2329 6.98574 15.2138 6.80954 15.1409C6.63334 15.0679 6.48273 14.9443 6.37678 14.7857C6.27082 14.6271 6.21427 14.4407 6.21427 14.25C6.21427 13.9942 6.31586 13.749 6.4967 13.5681C6.67754 13.3873 6.92281 13.2857 7.17855 13.2857ZM7.17855 16.5C7.36927 16.5 7.55571 16.5565 7.71428 16.6625C7.87286 16.7685 7.99646 16.9191 8.06944 17.0953C8.14243 17.2715 8.16152 17.4653 8.12431 17.6524C8.08711 17.8395 7.99527 18.0113 7.86041 18.1461C7.72555 18.281 7.55373 18.3728 7.36668 18.41C7.17962 18.4472 6.98574 18.4281 6.80954 18.3552C6.63334 18.2822 6.48273 18.1586 6.37678 18C6.27082 17.8414 6.21427 17.655 6.21427 17.4643C6.21427 17.2085 6.31586 16.9633 6.4967 16.7824C6.67754 16.6016 6.92281 16.5 7.17855 16.5Z" fill="#F4F2EF"/>
</svg>
