<svg width="32" height="32" viewBox="0 0 32 32" fill="none" xmlns="http://www.w3.org/2000/svg">
<path d="M29 8.57136C29 7.58627 28.6087 6.64152 27.9121 5.94496C27.2156 5.24839 26.2708 4.85706 25.2857 4.85706H24.3572V3.95461C24.3572 3.45492 23.973 3.02603 23.4733 3.00108C23.3477 2.99503 23.2223 3.01453 23.1045 3.05841C22.9867 3.10228 22.879 3.16962 22.788 3.25633C22.697 3.34304 22.6246 3.44733 22.5751 3.56287C22.5256 3.67841 22.5 3.80279 22.5 3.92849V4.85706H9.49998V3.95461C9.49998 3.45492 9.11578 3.02603 8.61609 3.00108C8.49054 2.99503 8.36507 3.01453 8.24728 3.05841C8.12948 3.10228 8.02183 3.16962 7.93083 3.25633C7.83983 3.34304 7.76738 3.44733 7.71788 3.56287C7.66837 3.67841 7.64284 3.80279 7.64283 3.92849V4.85706H6.71426C5.72916 4.85706 4.78442 5.24839 4.08785 5.94496C3.39128 6.64152 2.99996 7.58627 2.99996 8.57136V9.26779C2.99996 9.32936 3.02442 9.38841 3.06795 9.43194C3.11149 9.47548 3.17053 9.49994 3.2321 9.49994H28.7679C28.8295 9.49994 28.8885 9.47548 28.932 9.43194C28.9756 9.38841 29 9.32936 29 9.26779V8.57136ZM2.99996 25.2857C2.99996 26.2708 3.39128 27.2155 4.08785 27.9121C4.78442 28.6087 5.72916 29 6.71426 29H25.2857C26.2708 29 27.2156 28.6087 27.9121 27.9121C28.6087 27.2155 29 26.2708 29 25.2857V11.5312C29 11.485 28.9817 11.4407 28.949 11.4081C28.9164 11.3754 28.8721 11.3571 28.8259 11.3571H3.17407C3.12789 11.3571 3.0836 11.3754 3.05095 11.4081C3.0183 11.4407 2.99996 11.485 2.99996 11.5312V25.2857ZM22.9643 13.2142C23.2398 13.2142 23.5091 13.2959 23.7381 13.449C23.9672 13.602 24.1457 13.8196 24.2511 14.0741C24.3566 14.3286 24.3842 14.6086 24.3304 14.8788C24.2767 15.149 24.144 15.3972 23.9492 15.592C23.7544 15.7868 23.5062 15.9194 23.236 15.9732C22.9659 16.0269 22.6858 15.9994 22.4313 15.8939C22.1768 15.7885 21.9592 15.61 21.8062 15.3809C21.6531 15.1519 21.5714 14.8826 21.5714 14.6071C21.5714 14.2377 21.7182 13.8834 21.9794 13.6222C22.2406 13.361 22.5949 13.2142 22.9643 13.2142ZM22.9643 17.8571C23.2398 17.8571 23.5091 17.9388 23.7381 18.0918C23.9672 18.2449 24.1457 18.4624 24.2511 18.7169C24.3566 18.9715 24.3842 19.2515 24.3304 19.5217C24.2767 19.7919 24.144 20.0401 23.9492 20.2349C23.7544 20.4297 23.5062 20.5623 23.236 20.6161C22.9659 20.6698 22.6858 20.6422 22.4313 20.5368C22.1768 20.4314 21.9592 20.2529 21.8062 20.0238C21.6531 19.7947 21.5714 19.5254 21.5714 19.25C21.5714 18.8806 21.7182 18.5263 21.9794 18.2651C22.2406 18.0039 22.5949 17.8571 22.9643 17.8571ZM18.3214 13.2142C18.5969 13.2142 18.8662 13.2959 19.0953 13.449C19.3243 13.602 19.5028 13.8196 19.6083 14.0741C19.7137 14.3286 19.7413 14.6086 19.6875 14.8788C19.6338 15.149 19.5011 15.3972 19.3063 15.592C19.1115 15.7868 18.8634 15.9194 18.5932 15.9732C18.323 16.0269 18.0429 15.9994 17.7884 15.8939C17.5339 15.7885 17.3164 15.61 17.1633 15.3809C17.0103 15.1519 16.9286 14.8826 16.9286 14.6071C16.9286 14.2377 17.0753 13.8834 17.3365 13.6222C17.5977 13.361 17.952 13.2142 18.3214 13.2142ZM18.3214 17.8571C18.5969 17.8571 18.8662 17.9388 19.0953 18.0918C19.3243 18.2449 19.5028 18.4624 19.6083 18.7169C19.7137 18.9715 19.7413 19.2515 19.6875 19.5217C19.6338 19.7919 19.5011 20.0401 19.3063 20.2349C19.1115 20.4297 18.8634 20.5623 18.5932 20.6161C18.323 20.6698 18.0429 20.6422 17.7884 20.5368C17.5339 20.4314 17.3164 20.2529 17.1633 20.0238C17.0103 19.7947 16.9286 19.5254 16.9286 19.25C16.9286 18.8806 17.0753 18.5263 17.3365 18.2651C17.5977 18.0039 17.952 17.8571 18.3214 17.8571ZM18.3214 22.5C18.5969 22.5 18.8662 22.5817 19.0953 22.7347C19.3243 22.8878 19.5028 23.1053 19.6083 23.3598C19.7137 23.6143 19.7413 23.8944 19.6875 24.1646C19.6338 24.4348 19.5011 24.6829 19.3063 24.8777C19.1115 25.0725 18.8634 25.2052 18.5932 25.2589C18.323 25.3127 18.0429 25.2851 17.7884 25.1797C17.5339 25.0743 17.3164 24.8957 17.1633 24.6667C17.0103 24.4376 16.9286 24.1683 16.9286 23.8928C16.9286 23.5234 17.0753 23.1692 17.3365 22.9079C17.5977 22.6467 17.952 22.5 18.3214 22.5ZM13.6786 17.8571C13.954 17.8571 14.2233 17.9388 14.4524 18.0918C14.6815 18.2449 14.86 18.4624 14.9654 18.7169C15.0708 18.9715 15.0984 19.2515 15.0447 19.5217C14.9909 19.7919 14.8583 20.0401 14.6635 20.2349C14.4687 20.4297 14.2205 20.5623 13.9503 20.6161C13.6801 20.6698 13.4001 20.6422 13.1455 20.5368C12.891 20.4314 12.6735 20.2529 12.5204 20.0238C12.3674 19.7947 12.2857 19.5254 12.2857 19.25C12.2857 18.8806 12.4324 18.5263 12.6937 18.2651C12.9549 18.0039 13.3092 17.8571 13.6786 17.8571ZM13.6786 22.5C13.954 22.5 14.2233 22.5817 14.4524 22.7347C14.6815 22.8878 14.86 23.1053 14.9654 23.3598C15.0708 23.6143 15.0984 23.8944 15.0447 24.1646C14.9909 24.4348 14.8583 24.6829 14.6635 24.8777C14.4687 25.0725 14.2205 25.2052 13.9503 25.2589C13.6801 25.3127 13.4001 25.2851 13.1455 25.1797C12.891 25.0743 12.6735 24.8957 12.5204 24.6667C12.3674 24.4376 12.2857 24.1683 12.2857 23.8928C12.2857 23.5234 12.4324 23.1692 12.6937 22.9079C12.9549 22.6467 13.3092 22.5 13.6786 22.5ZM9.03569 17.8571C9.31117 17.8571 9.58047 17.9388 9.80952 18.0918C10.0386 18.2449 10.2171 18.4624 10.3225 18.7169C10.428 18.9715 10.4555 19.2515 10.4018 19.5217C10.348 19.7919 10.2154 20.0401 10.0206 20.2349C9.8258 20.4297 9.57761 20.5623 9.30743 20.6161C9.03724 20.6698 8.75718 20.6422 8.50267 20.5368C8.24815 20.4314 8.03062 20.2529 7.87757 20.0238C7.72452 19.7947 7.64283 19.5254 7.64283 19.25C7.64283 18.8806 7.78958 18.5263 8.05079 18.2651C8.312 18.0039 8.66628 17.8571 9.03569 17.8571ZM9.03569 22.5C9.31117 22.5 9.58047 22.5817 9.80952 22.7347C10.0386 22.8878 10.2171 23.1053 10.3225 23.3598C10.428 23.6143 10.4555 23.8944 10.4018 24.1646C10.348 24.4348 10.2154 24.6829 10.0206 24.8777C9.8258 25.0725 9.57761 25.2052 9.30743 25.2589C9.03724 25.3127 8.75718 25.2851 8.50267 25.1797C8.24815 25.0743 8.03062 24.8957 7.87757 24.6667C7.72452 24.4376 7.64283 24.1683 7.64283 23.8928C7.64283 23.5234 7.78958 23.1692 8.05079 22.9079C8.312 22.6467 8.66628 22.5 9.03569 22.5Z" fill="#F4F2EF"/>
</svg>
