<svg width="16" height="16" viewBox="0 0 16 16" fill="none" xmlns="http://www.w3.org/2000/svg">
<path d="M13 5.14283C13 4.76395 12.8495 4.40059 12.5816 4.13268C12.3137 3.86477 11.9503 3.71426 11.5714 3.71426H11.2143V3.36716C11.2143 3.17497 11.0665 3.01001 10.8743 3.00041C10.8261 2.99809 10.7778 3.00559 10.7325 3.02246C10.6872 3.03934 10.6458 3.06524 10.6108 3.09859C10.5758 3.13194 10.5479 3.17205 10.5289 3.21649C10.5098 3.26093 10.5 3.30877 10.5 3.35711V3.71426H5.49999V3.36716C5.49999 3.17497 5.35222 3.01001 5.16004 3.00041C5.11175 2.99809 5.06349 3.00559 5.01818 3.02246C4.97288 3.03934 4.93147 3.06524 4.89647 3.09859C4.86147 3.13194 4.83361 3.17205 4.81457 3.21649C4.79553 3.26093 4.78571 3.30877 4.7857 3.35711V3.71426H4.42856C4.04968 3.71426 3.68632 3.86477 3.41841 4.13268C3.1505 4.40059 2.99998 4.76395 2.99998 5.14283V5.41069C2.99998 5.43437 3.00939 5.45708 3.02614 5.47382C3.04288 5.49057 3.06559 5.49998 3.08927 5.49998H12.9107C12.9344 5.49998 12.9571 5.49057 12.9739 5.47382C12.9906 5.45708 13 5.43437 13 5.41069V5.14283ZM2.99998 11.5714C2.99998 11.9503 3.1505 12.3137 3.41841 12.5816C3.68632 12.8495 4.04968 13 4.42856 13H11.5714C11.9503 13 12.3137 12.8495 12.5816 12.5816C12.8495 12.3137 13 11.9503 13 11.5714V6.28123C13 6.26347 12.993 6.24644 12.9804 6.23388C12.9678 6.22132 12.9508 6.21426 12.9331 6.21426H3.06695C3.04919 6.21426 3.03216 6.22132 3.0196 6.23388C3.00704 6.24644 2.99998 6.26347 2.99998 6.28123V11.5714ZM10.6786 6.92855C10.7845 6.92855 10.8881 6.95997 10.9762 7.01884C11.0643 7.0777 11.133 7.16137 11.1735 7.25926C11.2141 7.35715 11.2247 7.46486 11.204 7.56878C11.1833 7.6727 11.1323 7.76816 11.0574 7.84308C10.9825 7.918 10.887 7.96902 10.7831 7.98969C10.6792 8.01036 10.5715 7.99975 10.4736 7.9592C10.3757 7.91866 10.292 7.84999 10.2332 7.7619C10.1743 7.6738 10.1429 7.57022 10.1429 7.46427C10.1429 7.32219 10.1993 7.18593 10.2998 7.08546C10.4002 6.98499 10.5365 6.92855 10.6786 6.92855ZM10.6786 8.71427C10.7845 8.71427 10.8881 8.74569 10.9762 8.80456C11.0643 8.86342 11.133 8.94709 11.1735 9.04498C11.2141 9.14287 11.2247 9.25058 11.204 9.3545C11.1833 9.45842 11.1323 9.55387 11.0574 9.6288C10.9825 9.70372 10.887 9.75474 10.7831 9.77541C10.6792 9.79608 10.5715 9.78547 10.4736 9.74492C10.3757 9.70438 10.292 9.63571 10.2332 9.54762C10.1743 9.45952 10.1429 9.35594 10.1429 9.24999C10.1429 9.10791 10.1993 8.97165 10.2998 8.87118C10.4002 8.77071 10.5365 8.71427 10.6786 8.71427ZM8.89286 6.92855C8.99882 6.92855 9.10239 6.95997 9.19049 7.01884C9.27859 7.0777 9.34725 7.16137 9.3878 7.25926C9.42835 7.35715 9.43895 7.46486 9.41828 7.56878C9.39761 7.6727 9.34659 7.76816 9.27167 7.84308C9.19675 7.918 9.10129 7.96902 8.99737 7.98969C8.89346 8.01036 8.78574 7.99975 8.68785 7.9592C8.58996 7.91866 8.5063 7.84999 8.44743 7.7619C8.38856 7.6738 8.35715 7.57022 8.35715 7.46427C8.35715 7.32219 8.41359 7.18593 8.51405 7.08546C8.61452 6.98499 8.75078 6.92855 8.89286 6.92855ZM8.89286 8.71427C8.99882 8.71427 9.10239 8.74569 9.19049 8.80456C9.27859 8.86342 9.34725 8.94709 9.3878 9.04498C9.42835 9.14287 9.43895 9.25058 9.41828 9.3545C9.39761 9.45842 9.34659 9.55387 9.27167 9.6288C9.19675 9.70372 9.10129 9.75474 8.99737 9.77541C8.89346 9.79608 8.78574 9.78547 8.68785 9.74492C8.58996 9.70438 8.5063 9.63571 8.44743 9.54762C8.38856 9.45952 8.35715 9.35594 8.35715 9.24999C8.35715 9.10791 8.41359 8.97165 8.51405 8.87118C8.61452 8.77071 8.75078 8.71427 8.89286 8.71427ZM8.89286 10.5C8.99882 10.5 9.10239 10.5314 9.19049 10.5903C9.27859 10.6491 9.34725 10.7328 9.3878 10.8307C9.42835 10.9286 9.43895 11.0363 9.41828 11.1402C9.39761 11.2441 9.34659 11.3396 9.27167 11.4145C9.19675 11.4894 9.10129 11.5405 8.99737 11.5611C8.89346 11.5818 8.78574 11.5712 8.68785 11.5306C8.58996 11.4901 8.5063 11.4214 8.44743 11.3333C8.38856 11.2452 8.35715 11.1417 8.35715 11.0357C8.35715 10.8936 8.41359 10.7574 8.51405 10.6569C8.61452 10.5564 8.75078 10.5 8.89286 10.5ZM7.10714 8.71427C7.2131 8.71427 7.31667 8.74569 7.40477 8.80456C7.49287 8.86342 7.56153 8.94709 7.60208 9.04498C7.64263 9.14287 7.65323 9.25058 7.63256 9.3545C7.61189 9.45842 7.56087 9.55387 7.48595 9.6288C7.41103 9.70372 7.31557 9.75474 7.21165 9.77541C7.10774 9.79608 7.00002 9.78547 6.90213 9.74492C6.80424 9.70438 6.72057 9.63571 6.66171 9.54762C6.60284 9.45952 6.57142 9.35594 6.57142 9.24999C6.57142 9.10791 6.62787 8.97165 6.72833 8.87118C6.8288 8.77071 6.96506 8.71427 7.10714 8.71427ZM7.10714 10.5C7.2131 10.5 7.31667 10.5314 7.40477 10.5903C7.49287 10.6491 7.56153 10.7328 7.60208 10.8307C7.64263 10.9286 7.65323 11.0363 7.63256 11.1402C7.61189 11.2441 7.56087 11.3396 7.48595 11.4145C7.41103 11.4894 7.31557 11.5405 7.21165 11.5611C7.10774 11.5818 7.00002 11.5712 6.90213 11.5306C6.80424 11.4901 6.72057 11.4214 6.66171 11.3333C6.60284 11.2452 6.57142 11.1417 6.57142 11.0357C6.57142 10.8936 6.62787 10.7574 6.72833 10.6569C6.8288 10.5564 6.96506 10.5 7.10714 10.5ZM5.32142 8.71427C5.42738 8.71427 5.53095 8.74569 5.61905 8.80456C5.70715 8.86342 5.77581 8.94709 5.81636 9.04498C5.85691 9.14287 5.86751 9.25058 5.84684 9.3545C5.82617 9.45842 5.77515 9.55387 5.70023 9.6288C5.62531 9.70372 5.52985 9.75474 5.42593 9.77541C5.32202 9.79608 5.2143 9.78547 5.11641 9.74492C5.01852 9.70438 4.93485 9.63571 4.87599 9.54762C4.81712 9.45952 4.7857 9.35594 4.7857 9.24999C4.7857 9.10791 4.84215 8.97165 4.94261 8.87118C5.04308 8.77071 5.17934 8.71427 5.32142 8.71427ZM5.32142 10.5C5.42738 10.5 5.53095 10.5314 5.61905 10.5903C5.70715 10.6491 5.77581 10.7328 5.81636 10.8307C5.85691 10.9286 5.86751 11.0363 5.84684 11.1402C5.82617 11.2441 5.77515 11.3396 5.70023 11.4145C5.62531 11.4894 5.52985 11.5405 5.42593 11.5611C5.32202 11.5818 5.2143 11.5712 5.11641 11.5306C5.01852 11.4901 4.93485 11.4214 4.87599 11.3333C4.81712 11.2452 4.7857 11.1417 4.7857 11.0357C4.7857 10.8936 4.84215 10.7574 4.94261 10.6569C5.04308 10.5564 5.17934 10.5 5.32142 10.5Z" fill="#F4F2EF"/>
</svg>
