<svg width="16" height="16" viewBox="0 0 16 16" fill="none" xmlns="http://www.w3.org/2000/svg">
<path d="M12.96 5.30933C12.9093 5.18719 12.8122 5.09013 12.6901 5.03941C12.63 5.0138 12.5655 5.00021 12.5001 4.99942H10.0009C9.8683 4.99942 9.74116 5.05208 9.64742 5.14582C9.55368 5.23957 9.50101 5.36671 9.50101 5.49928C9.50101 5.63185 9.55368 5.75899 9.64742 5.85273C9.74116 5.94647 9.8683 5.99913 10.0009 5.99913H11.2955L8.5013 8.79332L6.85678 7.1438C6.81031 7.09695 6.75503 7.05976 6.69412 7.03438C6.6332 7.00901 6.56787 6.99594 6.50188 6.99594C6.4359 6.99594 6.37056 7.00901 6.30965 7.03438C6.24874 7.05976 6.19345 7.09695 6.14699 7.1438L3.14786 10.1429C3.10101 10.1894 3.06382 10.2447 3.03844 10.3056C3.01307 10.3665 3 10.4318 3 10.4978C3 10.5638 3.01307 10.6291 3.03844 10.6901C3.06382 10.751 3.10101 10.8063 3.14786 10.8527C3.19432 10.8996 3.24961 10.9368 3.31052 10.9621C3.37143 10.9875 3.43677 11.0006 3.50275 11.0006C3.56874 11.0006 3.63407 10.9875 3.69499 10.9621C3.7559 10.9368 3.81118 10.8996 3.85765 10.8527L6.50188 8.20349L8.14641 9.85301C8.19287 9.89986 8.24816 9.93705 8.30907 9.96243C8.36998 9.9878 8.43532 10.0009 8.5013 10.0009C8.56729 10.0009 8.63262 9.9878 8.69354 9.96243C8.75445 9.93705 8.80973 9.89986 8.8562 9.85301L12.0003 6.70393V7.99855C12.0003 8.13112 12.053 8.25826 12.1467 8.352C12.2404 8.44574 12.3676 8.49841 12.5001 8.49841C12.6327 8.49841 12.7599 8.44574 12.8536 8.352C12.9473 8.25826 13 8.13112 13 7.99855V5.49928C12.9992 5.43396 12.9856 5.36942 12.96 5.30933Z" fill="#F4F2EF"/>
</svg>
