<svg width="24" height="24" viewBox="0 0 24 24" fill="currentColor" xmlns="http://www.w3.org/2000/svg">
<path d="M20.928 7.15679C20.8367 6.93694 20.662 6.76223 20.4422 6.67093C20.334 6.62483 20.2178 6.60037 20.1003 6.59895H15.6016C15.3629 6.59895 15.1341 6.69375 14.9654 6.86248C14.7966 7.03121 14.7018 7.26007 14.7018 7.49869C14.7018 7.73732 14.7966 7.96617 14.9654 8.1349C15.1341 8.30364 15.3629 8.39843 15.6016 8.39843H17.9319L12.9023 13.428L9.94221 10.4588C9.85856 10.3745 9.75905 10.3076 9.64941 10.2619C9.53977 10.2162 9.42217 10.1927 9.30339 10.1927C9.18461 10.1927 9.06701 10.2162 8.95737 10.2619C8.84773 10.3076 8.74822 10.3745 8.66458 10.4588L3.26614 15.8573C3.18181 15.9409 3.11487 16.0404 3.0692 16.1501C3.02352 16.2597 3 16.3773 3 16.4961C3 16.6149 3.02352 16.7325 3.0692 16.8421C3.11487 16.9517 3.18181 17.0513 3.26614 17.1349C3.34978 17.2192 3.4493 17.2862 3.55894 17.3318C3.66858 17.3775 3.78618 17.401 3.90496 17.401C4.02373 17.401 4.14133 17.3775 4.25097 17.3318C4.36062 17.2862 4.46013 17.2192 4.54377 17.1349L9.30339 12.3663L12.2635 15.3354C12.3472 15.4198 12.4467 15.4867 12.5563 15.5324C12.666 15.578 12.7836 15.6016 12.9023 15.6016C13.0211 15.6016 13.1387 15.578 13.2484 15.5324C13.358 15.4867 13.4575 15.4198 13.5412 15.3354L19.2005 9.66706V11.9974C19.2005 12.236 19.2953 12.4649 19.464 12.6336C19.6328 12.8023 19.8616 12.8971 20.1003 12.8971C20.3389 12.8971 20.5677 12.8023 20.7365 12.6336C20.9052 12.4649 21 12.236 21 11.9974V7.49869C20.9986 7.38112 20.9741 7.26496 20.928 7.15679Z" fill="#F4F2EF"/>
</svg>
