<svg width="32" height="32" viewBox="0 0 32 32" fill="none" xmlns="http://www.w3.org/2000/svg">
<path d="M28.896 9.00426C28.7642 8.6867 28.5118 8.43434 28.1942 8.30246C28.038 8.23587 27.8702 8.20055 27.7004 8.19849H21.2023C20.8576 8.19849 20.527 8.33542 20.2833 8.57915C20.0396 8.82287 19.9026 9.15344 19.9026 9.49812C19.9026 9.8428 20.0396 10.1734 20.2833 10.4171C20.527 10.6608 20.8576 10.7977 21.2023 10.7977H24.5683L17.3034 18.0626L13.0276 13.7739C12.9068 13.6521 12.7631 13.5554 12.6047 13.4894C12.4463 13.4234 12.2765 13.3895 12.1049 13.3895C11.9333 13.3895 11.7635 13.4234 11.6051 13.4894C11.4467 13.5554 11.303 13.6521 11.1822 13.7739L3.38443 21.5716C3.26261 21.6924 3.16593 21.8362 3.09995 21.9945C3.03397 22.1529 3 22.3228 3 22.4943C3 22.6659 3.03397 22.8358 3.09995 22.9942C3.16593 23.1525 3.26261 23.2963 3.38443 23.4171C3.50524 23.5389 3.64898 23.6356 3.80735 23.7016C3.96573 23.7675 4.13559 23.8015 4.30716 23.8015C4.47872 23.8015 4.64859 23.7675 4.80696 23.7016C4.96533 23.6356 5.10907 23.5389 5.22989 23.4171L12.1049 16.5291L16.3807 20.8178C16.5015 20.9396 16.6452 21.0363 16.8036 21.1023C16.962 21.1683 17.1318 21.2023 17.3034 21.2023C17.475 21.2023 17.6448 21.1683 17.8032 21.1023C17.9616 21.0363 18.1053 20.9396 18.2261 20.8178L26.4008 12.6302V15.9962C26.4008 16.3409 26.5377 16.6715 26.7814 16.9152C27.0251 17.1589 27.3557 17.2959 27.7004 17.2959C28.0451 17.2959 28.3756 17.1589 28.6194 16.9152C28.8631 16.6715 29 16.3409 29 15.9962V9.49812C28.9979 9.32829 28.9626 9.1605 28.896 9.00426Z" fill="#F4F2EF"/>
</svg>
