<svg width="16" height="16" viewBox="0 0 16 16" fill="currentColor" xmlns="http://www.w3.org/2000/svg">
<path d="M8.98 5.02C9.07375 5.11363 9.20083 5.16622 9.33333 5.16622C9.46583 5.16622 9.59291 5.11363 9.68666 5.02L10.1667 4.54V11.3333C10.1667 11.4659 10.2193 11.5931 10.3131 11.6869C10.4069 11.7807 10.5341 11.8333 10.6667 11.8333C10.7993 11.8333 10.9264 11.7807 11.0202 11.6869C11.114 11.5931 11.1667 11.4659 11.1667 11.3333V4.54L11.6467 5.02C11.6924 5.06912 11.7476 5.10852 11.809 5.13585C11.8703 5.16318 11.9365 5.17787 12.0036 5.17906C12.0708 5.18024 12.1375 5.16789 12.1997 5.14275C12.262 5.1176 12.3185 5.08017 12.366 5.03269C12.4135 4.98521 12.4509 4.92865 12.4761 4.8664C12.5012 4.80414 12.5136 4.73745 12.5124 4.67032C12.5112 4.60318 12.4965 4.53697 12.4692 4.47564C12.4419 4.41431 12.4025 4.35911 12.3533 4.31333L11.02 2.98C10.9262 2.88636 10.7992 2.83377 10.6667 2.83377C10.5342 2.83377 10.4071 2.88636 10.3133 2.98L8.98 4.31333C8.88636 4.40708 8.83377 4.53416 8.83377 4.66666C8.83377 4.79916 8.88636 4.92625 8.98 5.02ZM5.83333 11.46L6.31333 10.98C6.35911 10.9309 6.41431 10.8915 6.47564 10.8641C6.53697 10.8368 6.60318 10.8221 6.67032 10.8209C6.73745 10.8198 6.80414 10.8321 6.8664 10.8572C6.92866 10.8824 6.98521 10.9198 7.03269 10.9673C7.08017 11.0148 7.1176 11.0713 7.14275 11.1336C7.16789 11.1959 7.18024 11.2625 7.17906 11.3297C7.17787 11.3968 7.16318 11.463 7.13585 11.5244C7.10852 11.5857 7.06912 11.6409 7.02 11.6867L5.68666 13.02C5.59291 13.1136 5.46583 13.1662 5.33333 13.1662C5.20083 13.1662 5.07375 13.1136 4.98 13.02L3.64666 11.6867C3.59754 11.6409 3.55814 11.5857 3.53081 11.5244C3.50348 11.463 3.48879 11.3968 3.4876 11.3297C3.48642 11.2625 3.49877 11.1959 3.52392 11.1336C3.54906 11.0713 3.58649 11.0148 3.63397 10.9673C3.68145 10.9198 3.73801 10.8824 3.80027 10.8572C3.86252 10.8321 3.92921 10.8198 3.99635 10.8209C4.06348 10.8221 4.12969 10.8368 4.19102 10.8641C4.25236 10.8915 4.30756 10.9309 4.35333 10.98L4.83333 11.46V4.66666C4.83333 4.53406 4.88601 4.40688 4.97978 4.31311C5.07355 4.21934 5.20072 4.16666 5.33333 4.16666C5.46594 4.16666 5.59312 4.21934 5.68688 4.31311C5.78065 4.40688 5.83333 4.53406 5.83333 4.66666V11.46Z" fill="currentColor"/>
</svg>
