<svg width="32" height="32" viewBox="0 0 32 32" fill="currentColor" xmlns="http://www.w3.org/2000/svg">
<path d="M20.3333 9.08L19.3733 10.04C19.2818 10.1382 19.1714 10.217 19.0487 10.2717C18.926 10.3264 18.7936 10.3557 18.6594 10.3581C18.5251 10.3605 18.3917 10.3358 18.2672 10.2855C18.1427 10.2352 18.0296 10.1603 17.9346 10.0654C17.8397 9.97042 17.7648 9.85731 17.7145 9.73279C17.6642 9.60828 17.6395 9.47491 17.6419 9.34063C17.6442 9.20636 17.6736 9.07394 17.7283 8.95128C17.7829 8.82861 17.8617 8.71821 17.96 8.62666L20.6267 5.96C20.8142 5.77273 21.0683 5.66754 21.3333 5.66754C21.5983 5.66754 21.8525 5.77273 22.04 5.96L24.7067 8.62666C24.8049 8.71821 24.8837 8.82861 24.9384 8.95128C24.993 9.07394 25.0224 9.20636 25.0248 9.34063C25.0272 9.47491 25.0025 9.60828 24.9522 9.73279C24.9019 9.85731 24.827 9.97042 24.732 10.0654C24.6371 10.1603 24.524 10.2352 24.3995 10.2855C24.2749 10.3358 24.1416 10.3605 24.0073 10.3581C23.873 10.3557 23.7406 10.3264 23.6179 10.2717C23.4953 10.217 23.3849 10.1382 23.2933 10.04L22.3333 9.08V22.6667C22.3333 22.9319 22.228 23.1862 22.0404 23.3738C21.8529 23.5613 21.5985 23.6667 21.3333 23.6667C21.0681 23.6667 20.8138 23.5613 20.6262 23.3738C20.4387 23.1862 20.3333 22.9319 20.3333 22.6667V9.08Z" fill="#F4F2EF"/>
<path d="M13.3333 21.6675C13.5983 21.6675 13.8525 21.7727 14.04 21.96C14.2273 22.1475 14.3325 22.4017 14.3325 22.6667C14.3325 22.9317 14.2273 23.1858 14.04 23.3733L11.3733 26.04C11.1858 26.2273 10.9317 26.3325 10.6667 26.3325C10.4017 26.3325 10.1475 26.2273 9.96 26.04L7.29333 23.3733C7.19508 23.2818 7.11628 23.1714 7.06162 23.0487C7.00697 22.926 6.97758 22.7936 6.97521 22.6594C6.97284 22.5251 6.99754 22.3917 7.04784 22.2672C7.09813 22.1427 7.17299 22.0296 7.26795 21.9346C7.36291 21.8397 7.47602 21.7648 7.60054 21.7145C7.72505 21.6642 7.85842 21.6395 7.9927 21.6419C8.12697 21.6442 8.25939 21.6736 8.38205 21.7283C8.50472 21.7829 8.61512 21.8617 8.70667 21.96L9.66667 22.92L9.66667 9.33333C9.66667 9.06811 9.77202 8.81376 9.95956 8.62622C10.1471 8.43869 10.4014 8.33333 10.6667 8.33333C10.9319 8.33333 11.1862 8.43869 11.3738 8.62622C11.5613 8.81376 11.6667 9.06811 11.6667 9.33333L11.6667 22.92L12.6267 21.96C12.8142 21.7727 13.0683 21.6675 13.3333 21.6675Z" fill="#7F77DD"/>
</svg>
