<svg width="24" height="24" viewBox="0 0 24 24" fill="currentColor" xmlns="http://www.w3.org/2000/svg">
<path d="M8.75 17.19L9.47 16.47C9.53866 16.3963 9.62146 16.3372 9.71346 16.2962C9.80546 16.2552 9.90478 16.2332 10.0055 16.2314C10.1062 16.2296 10.2062 16.2482 10.2996 16.2859C10.393 16.3236 10.4778 16.3797 10.549 16.451C10.6203 16.5222 10.6764 16.607 10.7141 16.7004C10.7518 16.7938 10.7704 16.8938 10.7686 16.9945C10.7668 17.0952 10.7448 17.1945 10.7038 17.2865C10.6628 17.3785 10.6037 17.4613 10.53 17.53L8.53 19.53C8.38938 19.6705 8.19875 19.7493 8 19.7493C7.80125 19.7493 7.61063 19.6705 7.47 19.53L5.47 17.53C5.39631 17.4613 5.33721 17.3785 5.29622 17.2865C5.25523 17.1945 5.23319 17.0952 5.23141 16.9945C5.22963 16.8938 5.24816 16.7938 5.28588 16.7004C5.3236 16.607 5.37974 16.5222 5.45096 16.451C5.52218 16.3797 5.60701 16.3236 5.7004 16.2859C5.79379 16.2482 5.89382 16.2296 5.99452 16.2314C6.09523 16.2332 6.19454 16.2552 6.28654 16.2962C6.37854 16.3372 6.46134 16.3963 6.53 16.47L7.25 17.19V7C7.25 6.80109 7.32902 6.61032 7.46967 6.46967C7.61032 6.32902 7.80109 6.25 8 6.25C8.19891 6.25 8.38968 6.32902 8.53033 6.46967C8.67098 6.61032 8.75 6.80109 8.75 7V17.19Z" fill="currentColor"/>
<path d="M14 7.74934C13.8012 7.74934 13.6106 7.67045 13.47 7.53C13.3295 7.38937 13.2507 7.19875 13.2507 7C13.2507 6.80125 13.3295 6.61062 13.47 6.47L15.47 4.47C15.6106 4.32955 15.8012 4.25066 16 4.25066C16.1988 4.25066 16.3894 4.32955 16.53 4.47L18.53 6.47C18.6037 6.53866 18.6628 6.62146 18.7038 6.71346C18.7448 6.80546 18.7668 6.90477 18.7686 7.00547C18.7704 7.10618 18.7518 7.20621 18.7141 7.29959C18.6764 7.39298 18.6203 7.47782 18.549 7.54903C18.4778 7.62025 18.393 7.6764 18.2996 7.71412C18.2062 7.75184 18.1062 7.77036 18.0055 7.76859C17.9048 7.76681 17.8055 7.74477 17.7135 7.70378C17.6215 7.66279 17.5387 7.60368 17.47 7.53L16.75 6.81V17C16.75 17.1989 16.671 17.3897 16.5303 17.5303C16.3897 17.671 16.1989 17.75 16 17.75C15.8011 17.75 15.6103 17.671 15.4697 17.5303C15.329 17.3897 15.25 17.1989 15.25 17V6.81L14.53 7.53C14.3894 7.67045 14.1988 7.74934 14 7.74934Z" fill="#7F77DD"/>
</svg>
