<svg width="16" height="16" viewBox="0 0 16 16" fill="currentColor" xmlns="http://www.w3.org/2000/svg">
<path d="M10.1667 4.54L9.68667 5.02C9.64089 5.06912 9.58569 5.10852 9.52436 5.13585C9.46303 5.16318 9.39682 5.17787 9.32968 5.17906C9.26255 5.18024 9.19586 5.16789 9.1336 5.14275C9.07134 5.1176 9.01479 5.08017 8.96731 5.03269C8.91983 4.98521 8.8824 4.92866 8.85725 4.8664C8.83211 4.80414 8.81976 4.73745 8.82094 4.67032C8.82212 4.60318 8.83682 4.53697 8.86415 4.47564C8.89148 4.41431 8.93088 4.35911 8.98 4.31333L10.3133 2.98C10.4071 2.88636 10.5342 2.83377 10.6667 2.83377C10.7992 2.83377 10.9263 2.88636 11.02 2.98L12.3533 4.31333C12.4025 4.35911 12.4419 4.41431 12.4692 4.47564C12.4965 4.53697 12.5112 4.60318 12.5124 4.67032C12.5136 4.73745 12.5012 4.80414 12.4761 4.8664C12.4509 4.92866 12.4135 4.98521 12.366 5.03269C12.3185 5.08017 12.262 5.1176 12.1997 5.14275C12.1375 5.16789 12.0708 5.18024 12.0037 5.17906C11.9365 5.17787 11.8703 5.16318 11.809 5.13585C11.7476 5.10852 11.6924 5.06912 11.6467 5.02L11.1667 4.54V11.3333C11.1667 11.4659 11.114 11.5931 11.0202 11.6869C10.9265 11.7807 10.7993 11.8333 10.6667 11.8333C10.5341 11.8333 10.4069 11.7807 10.3131 11.6869C10.2193 11.5931 10.1667 11.4659 10.1667 11.3333V4.54Z" fill="#F4F2EF"/>
<path d="M6.66667 10.8338C6.79917 10.8338 6.92625 10.8864 7.02 10.98C7.11364 11.0737 7.16623 11.2008 7.16623 11.3333C7.16623 11.4658 7.11364 11.5929 7.02 11.6867L5.68667 13.02C5.59292 13.1136 5.46584 13.1662 5.33334 13.1662C5.20084 13.1662 5.07375 13.1136 4.98 13.02L3.64667 11.6867C3.59754 11.6409 3.55814 11.5857 3.53082 11.5244C3.50349 11.463 3.48879 11.3968 3.48761 11.3297C3.48642 11.2625 3.49877 11.1959 3.52392 11.1336C3.54907 11.0713 3.5865 11.0148 3.63398 10.9673C3.68146 10.9198 3.73801 10.8824 3.80027 10.8573C3.86253 10.8321 3.92922 10.8198 3.99635 10.8209C4.06349 10.8221 4.1297 10.8368 4.19103 10.8641C4.25236 10.8915 4.30756 10.9309 4.35334 10.98L4.83334 11.46L4.83334 4.66667C4.83334 4.53406 4.88601 4.40688 4.97978 4.31311C5.07355 4.21934 5.20073 4.16667 5.33334 4.16667C5.46594 4.16667 5.59312 4.21934 5.68689 4.31311C5.78066 4.40688 5.83334 4.53406 5.83334 4.66667L5.83334 11.46L6.31334 10.98C6.40709 10.8864 6.53417 10.8338 6.66667 10.8338Z" fill="#7F77DD"/>
</svg>
