<svg width="32" height="32" viewBox="0 0 32 32" fill="currentColor" xmlns="http://www.w3.org/2000/svg">
<path d="M17.96 10.04C18.1475 10.2273 18.4017 10.3324 18.6667 10.3324C18.9317 10.3324 19.1858 10.2273 19.3733 10.04L20.3333 9.07999V22.6667C20.3333 22.9319 20.4387 23.1862 20.6262 23.3738C20.8138 23.5613 21.0681 23.6667 21.3333 23.6667C21.5985 23.6667 21.8529 23.5613 22.0404 23.3738C22.228 23.1862 22.3333 22.9319 22.3333 22.6667V9.07999L23.2933 10.04C23.3849 10.1382 23.4953 10.217 23.6179 10.2717C23.7406 10.3264 23.873 10.3557 24.0073 10.3581C24.1416 10.3605 24.2749 10.3358 24.3995 10.2855C24.524 10.2352 24.6371 10.1603 24.732 10.0654C24.827 9.97042 24.9019 9.85731 24.9522 9.73279C25.0025 9.60827 25.0272 9.4749 25.0248 9.34063C25.0224 9.20636 24.993 9.07394 24.9384 8.95128C24.8837 8.82861 24.8049 8.71821 24.7067 8.62666L22.04 5.95999C21.8525 5.77273 21.5983 5.66754 21.3333 5.66754C21.0683 5.66754 20.8142 5.77273 20.6267 5.95999L17.96 8.62666C17.7727 8.81416 17.6675 9.06833 17.6675 9.33333C17.6675 9.59833 17.7727 9.85249 17.96 10.04ZM11.6667 22.92L12.6267 21.96C12.7182 21.8617 12.8286 21.7829 12.9513 21.7283C13.0739 21.6736 13.2064 21.6442 13.3406 21.6419C13.4749 21.6395 13.6083 21.6642 13.7328 21.7145C13.8573 21.7648 13.9704 21.8397 14.0654 21.9346C14.1603 22.0296 14.2352 22.1427 14.2855 22.2672C14.3358 22.3917 14.3605 22.5251 14.3581 22.6594C14.3558 22.7936 14.3264 22.926 14.2717 23.0487C14.2171 23.1714 14.1382 23.2818 14.04 23.3733L11.3733 26.04C11.1858 26.2273 10.9317 26.3324 10.6667 26.3324C10.4017 26.3324 10.1475 26.2273 9.96 26.04L7.29333 23.3733C7.19508 23.2818 7.11628 23.1714 7.06163 23.0487C7.00697 22.926 6.97758 22.7936 6.97521 22.6594C6.97284 22.5251 6.99754 22.3917 7.04784 22.2672C7.09813 22.1427 7.17299 22.0296 7.26795 21.9346C7.36291 21.8397 7.47602 21.7648 7.60054 21.7145C7.72505 21.6642 7.85843 21.6395 7.9927 21.6419C8.12697 21.6442 8.25938 21.6736 8.38205 21.7283C8.50472 21.7829 8.61512 21.8617 8.70667 21.96L9.66667 22.92V9.33333C9.66667 9.06811 9.77202 8.81376 9.95956 8.62622C10.1471 8.43868 10.4014 8.33333 10.6667 8.33333C10.9319 8.33333 11.1862 8.43868 11.3738 8.62622C11.5613 8.81376 11.6667 9.06811 11.6667 9.33333V22.92Z" fill="currentColor"/>
</svg>
