<svg width="32" height="32" viewBox="0 0 32 32" fill="currentColor"ntColor" xmlns="http://www.w3.org/2000/svg">
<path fill-rule="evenodd" clip-rule="evenodd" d="M10.2222 8.77778C10.2222 7.24542 10.831 5.77582 11.9145 4.69227C12.998 3.60873 14.4676 3 16 3C17.5324 3 19.002 3.60873 20.0855 4.69227C21.1691 5.77582 21.7778 7.24542 21.7778 8.77778C21.7778 10.3101 21.1691 11.7797 20.0855 12.8633C19.002 13.9468 17.5324 14.5556 16 14.5556C14.4676 14.5556 12.998 13.9468 11.9145 12.8633C10.831 11.7797 10.2222 10.3101 10.2222 8.77778ZM10.2222 17.4444C8.30677 17.4444 6.46977 18.2054 5.11534 19.5598C3.76091 20.9142 3 22.7512 3 24.6667C3 25.8159 3.45655 26.9181 4.2692 27.7308C5.08186 28.5435 6.18406 29 7.33333 29H24.6667C25.8159 29 26.9181 28.5435 27.7308 27.7308C28.5435 26.9181 29 25.8159 29 24.6667C29 22.7512 28.2391 20.9142 26.8847 19.5598C25.5302 18.2054 23.6932 17.4444 21.7778 17.4444H10.2222Z" fill="#F4F2EF"/>
</svg>
