<svg width="24" height="24" viewBox="0 0 24 24" fill="none" xmlns="http://www.w3.org/2000/svg">
<path fill-rule="evenodd" clip-rule="evenodd" d="M8 7.27778C8 6.27585 8.42143 5.31496 9.17157 4.60649C9.92172 3.89801 10.9391 3.5 12 3.5C13.0609 3.5 14.0783 3.89801 14.8284 4.60649C15.5786 5.31496 16 6.27585 16 7.27778C16 8.27971 15.5786 9.2406 14.8284 9.94907C14.0783 10.6575 13.0609 11.0556 12 11.0556C10.9391 11.0556 9.92172 10.6575 9.17157 9.94907C8.42143 9.2406 8 8.27971 8 7.27778ZM8 12.9444C6.67392 12.9444 5.40215 13.442 4.46447 14.3276C3.52678 15.2131 3 16.4143 3 17.6667C3 18.4181 3.31607 19.1388 3.87868 19.6701C4.44129 20.2015 5.20435 20.5 6 20.5H18C18.7956 20.5 19.5587 20.2015 20.1213 19.6701C20.6839 19.1388 21 18.4181 21 17.6667C21 16.4143 20.4732 15.2131 19.5355 14.3276C18.5979 13.442 17.3261 12.9444 16 12.9444H8Z" fill="#F4F2EF"/>
</svg>
