<svg width="16" height="3" viewBox="0 0 16 3" fill="none" xmlns="http://www.w3.org/2000/svg">
<path d="M1.33333 0C0.6 0 0 0.675 0 1.5C0 2.325 0.6 3 1.33333 3C2.06667 3 2.66667 2.325 2.66667 1.5C2.66667 0.675 2.06667 0 1.33333 0ZM14.6667 0C13.9333 0 13.3333 0.675 13.3333 1.5C13.3333 2.325 13.9333 3 14.6667 3C15.4 3 16 2.325 16 1.5C16 0.675 15.4 0 14.6667 0ZM8 0C7.26667 0 6.66667 0.675 6.66667 1.5C6.66667 2.325 7.26667 3 8 3C8.73333 3 9.33333 2.325 9.33333 1.5C9.33333 0.675 8.73333 0 8 0Z" fill="#F4F2EF"/>
</svg>
