<svg width="32" height="5" viewBox="0 0 32 5" fill="none" xmlns="http://www.w3.org/2000/svg">
<path d="M2.66667 0C1.2 0 0 1.125 0 2.5C0 3.875 1.2 5 2.66667 5C4.13333 5 5.33333 3.875 5.33333 2.5C5.33333 1.125 4.13333 0 2.66667 0ZM29.3333 0C27.8667 0 26.6667 1.125 26.6667 2.5C26.6667 3.875 27.8667 5 29.3333 5C30.8 5 32 3.875 32 2.5C32 1.125 30.8 0 29.3333 0ZM16 0C14.5333 0 13.3333 1.125 13.3333 2.5C13.3333 3.875 14.5333 5 16 5C17.4667 5 18.6667 3.875 18.6667 2.5C18.6667 1.125 17.4667 0 16 0Z" fill="#F4F2EF"/>
</svg>
