<svg width="13" height="16" viewBox="0 0 13 16" fill="currentColor" xmlns="http://www.w3.org/2000/svg">
<path d="M6.5 16C4.61771 15.5333 3.06367 14.4699 1.83788 12.8096C0.612084 11.1493 -0.000541308 9.30613 3.58878e-07 7.28V2.4L6.5 0L13 2.4V7.28C13 9.30667 12.3874 11.1501 11.1621 12.8104C9.93688 14.4707 8.38283 15.5339 6.5 16ZM6.5 14.32C7.90833 13.88 9.07292 13 9.99375 11.68C10.9146 10.36 11.375 8.89333 11.375 7.28V3.5L6.5 1.7L1.625 3.5V7.28C1.625 8.89333 2.08542 10.36 3.00625 11.68C3.92708 13 5.09167 13.88 6.5 14.32Z" fill="#F4F2EF"/>
</svg>
