<svg width="26" height="32" viewBox="0 0 26 32" fill="currentColor" xmlns="http://www.w3.org/2000/svg">
<path d="M13 32C9.23542 31.0667 6.12733 28.9397 3.67575 25.6192C1.22417 22.2987 -0.00108262 18.6123 7.17756e-07 14.56V4.8L13 0L26 4.8V14.56C26 18.6133 24.7748 22.3003 22.3243 25.6208C19.8738 28.9413 16.7657 31.0677 13 32ZM13 29.64C15.8167 28.76 19.1458 27 20.9875 24.36C22.8292 21.72 23.75 17.7867 23.75 14.56V6L13 2.4L2.25 6V14.56C2.25 17.7867 3.17083 21.72 5.0125 24.36C6.85417 27 10.1833 28.76 13 29.64Z" fill="#F4F2EF"/>
</svg>
