<svg width="24" height="24" viewBox="0 0 24 24" fill="currentColor" xmlns="http://www.w3.org/2000/svg">
<path d="M13.3536 0.316037L22.1536 4.40284C22.7043 4.65834 23.1704 5.06442 23.4974 5.57357C23.8244 6.08272 23.9987 6.67389 24 7.27791V16.7396C23.9987 17.3436 23.8244 17.9348 23.4974 18.4439C23.1704 18.9531 22.7043 19.3592 22.1536 19.6147L13.3536 23.7015C12.9298 23.8981 12.4677 24 12 24C11.5323 24 11.0702 23.8981 10.6464 23.7015L1.8464 19.6147C1.2957 19.3592 0.829595 18.9531 0.502613 18.4439C0.175631 17.9348 0.00129496 17.3436 0 16.7396V7.27791C0 6.67205 0.1728 6.07891 0.5008 5.5605C0.8288 5.0421 1.2944 4.64137 1.8464 4.38535L10.6464 0.298544C11.0702 0.101907 11.5323 0 12 0C12.4677 0 12.9298 0.101907 13.3536 0.298544V0.316037ZM1.5936 7.28109V16.7428C1.59364 17.0453 1.68052 17.3416 1.84405 17.5968C2.00757 17.852 2.24096 18.0555 2.5168 18.1835L11.1888 22.2067V11.3297L1.6208 6.94079C1.59679 7.05264 1.58499 7.16673 1.5856 7.28109H1.5936ZM22.3936 6.94238L12.8256 11.3313V22.2083L21.4976 18.1851C21.7737 18.057 22.0072 17.8532 22.1708 17.5977C22.3343 17.3422 22.4211 17.0456 22.4208 16.7428V7.28109C22.4208 7.16721 22.4084 7.05365 22.384 6.94238H22.3936ZM11.3536 1.75834L2.8096 5.71793L12.0256 9.94785L21.2416 5.71793L12.6976 1.75834C12.4857 1.66003 12.2547 1.60907 12.0208 1.60907C11.7869 1.60907 11.5559 1.66003 11.344 1.75834H11.3536Z" fill="#F4F2EF"/>
</svg>
