<svg width="16" height="16" viewBox="0 0 16 16" fill="none" xmlns="http://www.w3.org/2000/svg">
<path d="M8.9024 0.210691L14.7691 2.93523C15.1362 3.10556 15.4469 3.37628 15.6649 3.71571C15.8829 4.05515 15.9991 4.44926 16 4.85194V11.1597C15.9991 11.5624 15.8829 11.9565 15.6649 12.2959C15.4469 12.6354 15.1362 12.9061 14.7691 13.0764L8.9024 15.801C8.61985 15.9321 8.31182 16 8 16C7.68818 16 7.38015 15.9321 7.0976 15.801L1.23093 13.0764C0.8638 12.9061 0.553063 12.6354 0.335075 12.2959C0.117087 11.9565 0.000863304 11.5624 0 11.1597V4.85194C0 4.44803 0.1152 4.0526 0.333867 3.707C0.552533 3.3614 0.862933 3.09425 1.23093 2.92356L7.0976 0.19903C7.38015 0.0679377 7.68818 0 8 0C8.31182 0 8.61985 0.0679377 8.9024 0.19903V0.210691ZM1.0624 4.85406V11.1618C1.06243 11.3635 1.12035 11.561 1.22937 11.7312C1.33838 11.9013 1.49397 12.037 1.67787 12.1223L7.4592 14.8044V7.55315L1.08053 4.62719C1.06453 4.70176 1.05666 4.77782 1.05707 4.85406H1.0624ZM14.9291 4.62825L8.5504 7.55421V14.8055L14.3317 12.1234C14.5158 12.038 14.6715 11.9021 14.7805 11.7318C14.8896 11.5615 14.9474 11.3637 14.9472 11.1618V4.85406C14.9472 4.77814 14.939 4.70243 14.9227 4.62825H14.9291ZM7.56907 1.17223L1.87307 3.81195L8.01707 6.6319L14.1611 3.81195L8.46507 1.17223C8.32379 1.10668 8.16978 1.07271 8.01387 1.07271C7.85796 1.07271 7.70394 1.10668 7.56267 1.17223H7.56907Z" fill="#F4F2EF"/>
</svg>
