<svg width="16" height="16" viewBox="0 0 16 16" fill="currentColor" xmlns="http://www.w3.org/2000/svg">
<path d="M6.69844 10.3969C5.66477 10.3969 4.79004 10.0388 4.07425 9.32262C3.35846 8.60645 3.00038 7.73172 3 6.69843C2.99962 5.66515 3.35771 4.79042 4.07425 4.07425C4.7908 3.35808 5.66553 3 6.69844 3C7.73134 3 8.60626 3.35808 9.32319 4.07425C10.0401 4.79042 10.398 5.66515 10.3969 6.69843C10.3969 7.11569 10.3305 7.50925 10.1977 7.87909C10.065 8.24893 9.88478 8.5761 9.65718 8.8606L12.8435 12.0469C12.9478 12.1513 13 12.284 13 12.4452C13 12.6064 12.9478 12.7392 12.8435 12.8435C12.7392 12.9478 12.6064 13 12.4452 13C12.284 13 12.1513 12.9478 12.0469 12.8435L8.8606 9.65718C8.5761 9.88478 8.24893 10.065 7.87909 10.1977C7.50925 10.3305 7.11569 10.3969 6.69844 10.3969ZM6.69844 9.25889C7.40967 9.25889 8.01432 9.01005 8.51238 8.51237C9.01043 8.0147 9.25927 7.41005 9.25889 6.69843C9.25851 5.98682 9.00967 5.38236 8.51238 4.88506C8.01508 4.38777 7.41043 4.13874 6.69844 4.13798C5.98644 4.13722 5.38198 4.38625 4.88506 4.88506C4.38815 5.38388 4.13912 5.98834 4.13798 6.69843C4.13684 7.40853 4.38587 8.01318 4.88506 8.51237C5.38426 9.01157 5.98872 9.26041 6.69844 9.25889Z" fill="#F4F2EF"/>
</svg>
