<svg width="32" height="32" viewBox="0 0 32 32" fill="none" xmlns="http://www.w3.org/2000/svg">
<path d="M12.6159 22.2319C9.9284 22.2319 7.65411 21.3008 5.79306 19.4388C3.93201 17.5768 3.00099 15.3025 3 12.6159C2.99901 9.92939 3.93003 7.6551 5.79306 5.79306C7.65608 3.93102 9.93038 3 12.6159 3C15.3015 3 17.5763 3.93102 19.4403 5.79306C21.3043 7.6551 22.2348 9.92939 22.2319 12.6159C22.2319 13.7008 22.0593 14.724 21.7141 15.6856C21.3689 16.6472 20.9004 17.4979 20.3087 18.2376L28.5932 26.522C28.8644 26.7933 29 27.1385 29 27.5576C29 27.9768 28.8644 28.322 28.5932 28.5932C28.322 28.8644 27.9768 29 27.5576 29C27.1385 29 26.7933 28.8644 26.522 28.5932L18.2376 20.3087C17.4979 20.9004 16.6472 21.3689 15.6856 21.7141C14.724 22.0593 13.7008 22.2319 12.6159 22.2319ZM12.6159 19.2731C14.4651 19.2731 16.0372 18.6261 17.3322 17.3322C18.6271 16.0382 19.2741 14.4661 19.2731 12.6159C19.2721 10.7657 18.6251 9.19414 17.3322 7.90117C16.0392 6.60819 14.4671 5.96072 12.6159 5.95875C10.7647 5.95678 9.19315 6.60425 7.90117 7.90117C6.60918 9.19808 5.96171 10.7697 5.95875 12.6159C5.95579 14.4622 6.60326 16.0343 7.90117 17.3322C9.19907 18.6301 10.7707 19.2771 12.6159 19.2731Z" fill="#F4F2EF"/>
</svg>
