<svg width="24" height="24" viewBox="0 0 24 24" fill="currentColor"ntColor" xmlns="http://www.w3.org/2000/svg">
<path d="M9.65718 16.3144C7.79659 16.3144 6.22208 15.6698 4.93366 14.3807C3.64524 13.0916 3.00068 11.5171 3 9.65718C2.99932 7.79727 3.64387 6.22276 4.93366 4.93366C6.22344 3.64455 7.79795 3 9.65718 3C11.5164 3 13.0913 3.64455 14.3817 4.93366C15.6722 6.22276 16.3164 7.79727 16.3144 9.65718C16.3144 10.4083 16.1949 11.1166 15.9559 11.7824C15.7169 12.4481 15.3926 13.037 14.9829 13.5491L20.7183 19.2845C20.9061 19.4723 21 19.7112 21 20.0014C21 20.2916 20.9061 20.5306 20.7183 20.7183C20.5306 20.9061 20.2916 21 20.0014 21C19.7112 21 19.4723 20.9061 19.2845 20.7183L13.5491 14.9829C13.037 15.3926 12.4481 15.7169 11.7824 15.9559C11.1166 16.1949 10.4083 16.3144 9.65718 16.3144ZM9.65718 14.266C10.9374 14.266 12.0258 13.8181 12.9223 12.9223C13.8188 12.0265 14.2667 10.9381 14.266 9.65718C14.2653 8.37627 13.8174 7.28825 12.9223 6.39312C12.0271 5.49798 10.9388 5.04973 9.65718 5.04836C8.37559 5.047 7.28757 5.49525 6.39312 6.39312C5.49866 7.29098 5.05041 8.379 5.04836 9.65718C5.04632 10.9354 5.49457 12.0237 6.39312 12.9223C7.29167 13.8208 8.37969 14.2687 9.65718 14.266Z" fill="#F4F2EF"/>
</svg>
