<svg width="24" height="24" viewBox="0 0 24 24" fill="none" xmlns="http://www.w3.org/2000/svg">
<path d="M17.4 21C16.65 21 16.0125 20.7375 15.4875 20.2125C14.9625 19.6875 14.7 19.05 14.7 18.3C14.7 18.21 14.7225 18 14.7675 17.67L8.445 13.98C8.205 14.205 7.9275 14.3814 7.6125 14.5092C7.2975 14.637 6.96 14.7006 6.6 14.7C5.85 14.7 5.2125 14.4375 4.6875 13.9125C4.1625 13.3875 3.9 12.75 3.9 12C3.9 11.25 4.1625 10.6125 4.6875 10.0875C5.2125 9.5625 5.85 9.3 6.6 9.3C6.96 9.3 7.2975 9.3639 7.6125 9.4917C7.9275 9.6195 8.205 9.7956 8.445 10.02L14.7675 6.33C14.7375 6.225 14.7189 6.1239 14.7117 6.0267C14.7045 5.9295 14.7006 5.8206 14.7 5.7C14.7 4.95 14.9625 4.3125 15.4875 3.7875C16.0125 3.2625 16.65 3 17.4 3C18.15 3 18.7875 3.2625 19.3125 3.7875C19.8375 4.3125 20.1 4.95 20.1 5.7C20.1 6.45 19.8375 7.0875 19.3125 7.6125C18.7875 8.1375 18.15 8.4 17.4 8.4C17.04 8.4 16.7025 8.3361 16.3875 8.2083C16.0725 8.0805 15.795 7.9044 15.555 7.68L9.2325 11.37C9.2625 11.475 9.2814 11.5764 9.2892 11.6742C9.297 11.772 9.3006 11.8806 9.3 12C9.2994 12.1194 9.2958 12.2283 9.2892 12.3267C9.2826 12.4251 9.2637 12.5262 9.2325 12.63L15.555 16.32C15.795 16.095 16.0725 15.9189 16.3875 15.7917C16.7025 15.6645 17.04 15.6006 17.4 15.6C18.15 15.6 18.7875 15.8625 19.3125 16.3875C19.8375 16.9125 20.1 17.55 20.1 18.3C20.1 19.05 19.8375 19.6875 19.3125 20.2125C18.7875 20.7375 18.15 21 17.4 21Z" fill="#F4F2EF"/>
</svg>
