<svg width="32" height="32" viewBox="0 0 32 32" fill="currentColor" xmlns="http://www.w3.org/2000/svg">
<path d="M23.8 29C22.7167 29 21.7958 28.6208 21.0375 27.8625C20.2792 27.1042 19.9 26.1833 19.9 25.1C19.9 24.97 19.9325 24.6667 19.9975 24.19L10.865 18.86C10.5183 19.185 10.1175 19.4398 9.6625 19.6244C9.2075 19.809 8.72 19.9009 8.2 19.9C7.11667 19.9 6.19583 19.5208 5.4375 18.7625C4.67917 18.0042 4.3 17.0833 4.3 16C4.3 14.9167 4.67917 13.9958 5.4375 13.2375C6.19583 12.4792 7.11667 12.1 8.2 12.1C8.72 12.1 9.2075 12.1923 9.6625 12.3769C10.1175 12.5615 10.5183 12.8159 10.865 13.14L19.9975 7.81C19.9542 7.65833 19.9273 7.5123 19.9169 7.3719C19.9065 7.2315 19.9009 7.0742 19.9 6.9C19.9 5.81667 20.2792 4.89583 21.0375 4.1375C21.7958 3.37917 22.7167 3 23.8 3C24.8833 3 25.8042 3.37917 26.5625 4.1375C27.3208 4.89583 27.7 5.81667 27.7 6.9C27.7 7.98333 27.3208 8.90417 26.5625 9.6625C25.8042 10.4208 24.8833 10.8 23.8 10.8C23.28 10.8 22.7925 10.7077 22.3375 10.5231C21.8825 10.3385 21.4817 10.0841 21.135 9.76L12.0025 15.09C12.0458 15.2417 12.0731 15.3881 12.0844 15.5294C12.0957 15.6707 12.1009 15.8275 12.1 16C12.0991 16.1725 12.0939 16.3298 12.0844 16.4719C12.0749 16.614 12.0476 16.7601 12.0025 16.91L21.135 22.24C21.4817 21.915 21.8825 21.6606 22.3375 21.4769C22.7925 21.2932 23.28 21.2009 23.8 21.2C24.8833 21.2 25.8042 21.5792 26.5625 22.3375C27.3208 23.0958 27.7 24.0167 27.7 25.1C27.7 26.1833 27.3208 27.1042 26.5625 27.8625C25.8042 28.6208 24.8833 29 23.8 29Z" fill="#F4F2EF"/>
</svg>
