<svg width="16" height="16" viewBox="0 0 16 16" fill="currentColor"ntColor" xmlns="http://www.w3.org/2000/svg">
<path d="M11 13C10.5833 13 10.2292 12.8542 9.9375 12.5625C9.64583 12.2708 9.5 11.9167 9.5 11.5C9.5 11.45 9.5125 11.3333 9.5375 11.15L6.025 9.1C5.89167 9.225 5.7375 9.323 5.5625 9.394C5.3875 9.465 5.2 9.50033 5 9.5C4.58333 9.5 4.22917 9.35417 3.9375 9.0625C3.64583 8.77083 3.5 8.41667 3.5 8C3.5 7.58333 3.64583 7.22917 3.9375 6.9375C4.22917 6.64583 4.58333 6.5 5 6.5C5.2 6.5 5.3875 6.5355 5.5625 6.6065C5.7375 6.6775 5.89167 6.77533 6.025 6.9L9.5375 4.85C9.52083 4.79167 9.5105 4.7355 9.5065 4.6815C9.5025 4.6275 9.50033 4.567 9.5 4.5C9.5 4.08333 9.64583 3.72917 9.9375 3.4375C10.2292 3.14583 10.5833 3 11 3C11.4167 3 11.7708 3.14583 12.0625 3.4375C12.3542 3.72917 12.5 4.08333 12.5 4.5C12.5 4.91667 12.3542 5.27083 12.0625 5.5625C11.7708 5.85417 11.4167 6 11 6C10.8 6 10.6125 5.9645 10.4375 5.8935C10.2625 5.8225 10.1083 5.72467 9.975 5.6L6.4625 7.65C6.47917 7.70833 6.48967 7.76467 6.494 7.819C6.49833 7.87333 6.50033 7.93367 6.5 8C6.49967 8.06633 6.49767 8.12683 6.494 8.1815C6.49033 8.23617 6.47983 8.29233 6.4625 8.35L9.975 10.4C10.1083 10.275 10.2625 10.1772 10.4375 10.1065C10.6125 10.0358 10.8 10.0003 11 10C11.4167 10 11.7708 10.1458 12.0625 10.4375C12.3542 10.7292 12.5 11.0833 12.5 11.5C12.5 11.9167 12.3542 12.2708 12.0625 12.5625C11.7708 12.8542 11.4167 13 11 13Z" fill="#F4F2EF"/>
</svg>
